<svg enable-background="new 0 0 512 512" viewBox="0 0 512 512" xmlns="http://www.w3.org/2000/svg"><g fill="#fff"><path d="m502 0h-492c-5.522 0-10 4.477-10 10v438c0 5.522 4.478 10 10 10h207.5c5.522 0 10-4.478 10-10s-4.478-10-10-10h-197.5v-346.051c.33.033.665.051 1.004.051h470.996v346h-19.468c-5.522 0-10 4.478-10 10s4.478 10 10 10h29.468c5.522 0 10-4.478 10-10v-438c0-5.523-4.478-10-10-10zm-10 72h-470.996c-.339 0-.674.018-1.004.051v-52.051h472z"/><path d="m267.069 440.93c-1.859-1.861-4.439-2.93-7.069-2.93s-5.21 1.069-7.07 2.93-2.93 4.44-2.93 7.07 1.069 5.21 2.93 7.069c1.86 1.86 4.44 2.931 7.07 2.931s5.21-1.07 7.069-2.931c1.861-1.859 2.931-4.439 2.931-7.069s-1.07-5.21-2.931-7.07z"/><path d="m448 36h-225.935c-5.522 0-10 4.477-10 10s4.478 10 10 10h225.935c5.522 0 10-4.477 10-10s-4.478-10-10-10z"/><path d="m111.069 38.93c-1.859-1.86-4.439-2.93-7.069-2.93s-5.21 1.07-7.07 2.93c-1.861 1.86-2.93 4.44-2.93 7.07s1.069 5.21 2.93 7.07 4.44 2.93 7.07 2.93 5.21-1.07 7.069-2.93c1.861-1.86 2.931-4.44 2.931-7.07s-1.07-5.21-2.931-7.07z"/><path d="m71.069 38.93c-1.859-1.86-4.439-2.93-7.069-2.93s-5.21 1.07-7.07 2.93c-1.861 1.86-2.93 4.44-2.93 7.07s1.069 5.21 2.93 7.07 4.44 2.93 7.07 2.93 5.21-1.07 7.069-2.93c1.861-1.86 2.931-4.44 2.931-7.07s-1.07-5.21-2.931-7.07z"/><path d="m151.069 38.93c-1.859-1.86-4.439-2.93-7.069-2.93s-5.21 1.07-7.07 2.93-2.93 4.44-2.93 7.07 1.069 5.21 2.93 7.07 4.44 2.93 7.07 2.93 5.21-1.07 7.069-2.93c1.861-1.86 2.931-4.44 2.931-7.07s-1.07-5.21-2.931-7.07z"/><path d="m313.58 308.146c-1.423-4.376-5.135-7.505-9.689-8.166l-25.659-3.722-11.48-23.247c0-.002-.001-.003-.002-.004-2.038-4.122-6.159-6.683-10.758-6.683-.001 0-.003 0-.005 0-4.6.002-8.722 2.565-10.758 6.692l-11.468 23.253-25.661 3.735c-4.552.664-8.262 3.795-9.682 8.171s-.255 9.088 3.04 12.3l18.571 18.092-4.377 25.56c-.774 4.533 1.056 9.029 4.777 11.731 2.104 1.527 4.563 2.303 7.04 2.303 1.907 0 3.826-.46 5.6-1.393l22.945-12.071 22.953 12.06c4.072 2.141 8.914 1.79 12.636-.917 3.722-2.703 5.55-7.2 4.772-11.737l-4.39-25.554 18.562-18.102c3.293-3.213 4.456-7.926 3.033-12.301zm-38.569 19.022c-2.833 2.762-4.121 6.738-3.448 10.623l2.357 13.723-12.334-6.48c-3.499-1.835-7.672-1.831-11.161.008l-12.322 6.482 2.35-13.723c.667-3.893-.623-7.862-3.453-10.623l-9.974-9.716 13.777-2.006c3.912-.568 7.29-3.025 9.035-6.567l6.158-12.487 6.164 12.481c1.748 3.542 5.125 5.996 9.038 6.565l13.779 1.998z"/><path d="m172.046 308.146c-1.423-4.376-5.135-7.505-9.689-8.166l-25.659-3.722-11.48-23.247c0-.002-.001-.003-.002-.004-2.038-4.122-6.159-6.683-10.758-6.683-.001 0-.003 0-.005 0-4.6.002-8.722 2.565-10.758 6.692l-11.468 23.253-25.661 3.735c-4.552.664-8.262 3.795-9.682 8.171s-.255 9.088 3.04 12.3l18.571 18.092-4.377 25.56c-.774 4.533 1.056 9.029 4.777 11.731 2.104 1.527 4.563 2.303 7.04 2.303 1.907 0 3.826-.46 5.6-1.393l22.945-12.071 22.953 12.06c4.072 2.141 8.914 1.79 12.636-.917 3.722-2.704 5.55-7.201 4.771-11.738l-4.39-25.553 18.562-18.103c3.294-3.212 4.457-7.925 3.034-12.3zm-38.569 19.022c-2.828 2.758-4.118 6.729-3.449 10.623l2.357 13.722-12.333-6.479c-3.5-1.835-7.673-1.831-11.161.008l-12.322 6.482 2.35-13.723c.667-3.893-.623-7.862-3.453-10.623l-9.974-9.716 13.777-2.006c3.912-.568 7.29-3.025 9.035-6.567l6.158-12.487 6.164 12.481c1.748 3.542 5.125 5.996 9.038 6.565l13.779 1.998z"/><path d="m455.116 308.177c-1.42-4.376-5.13-7.507-9.686-8.171l-25.657-3.735-11.469-23.255c-2.035-4.125-6.157-6.688-10.757-6.69-.002 0-.003 0-.005 0-4.599 0-8.721 2.561-10.758 6.683-.001.001-.002.002-.002.004l-11.48 23.247-25.661 3.722c-4.553.661-8.265 3.79-9.688 8.166-1.423 4.375-.26 9.088 3.033 12.301l18.563 18.103-4.392 25.556c-.777 4.534 1.051 9.031 4.772 11.735 3.722 2.706 8.563 3.056 12.637.917l22.952-12.06 22.949 12.073c1.771.932 3.688 1.391 5.595 1.391 2.478 0 4.938-.775 7.041-2.303 3.722-2.702 5.552-7.198 4.776-11.734l-4.376-25.557 18.572-18.093c3.296-3.212 4.461-7.924 3.041-12.3zm-38.584 19.005c-2.827 2.757-4.117 6.727-3.45 10.617l2.35 13.725-12.317-6.48c-1.749-.921-3.669-1.382-5.59-1.382-1.916 0-3.833.458-5.584 1.376l-12.325 6.476 2.357-13.723c.669-3.894-.621-7.864-3.448-10.622l-9.968-9.722 13.783-1.999c3.909-.568 7.286-3.022 9.032-6.562l6.166-12.484 6.156 12.483c1.747 3.546 5.125 6.003 9.036 6.571l13.778 2.006z"/><path d="m448 118h-384c-5.522 0-10 4.477-10 10v107.974c0 5.523 4.478 10 10 10h384c5.522 0 10-4.477 10-10v-107.974c0-5.523-4.478-10-10-10zm-10 107.974h-364v-43.974h148.065c5.522 0 10-4.477 10-10s-4.478-10-10-10h-148.065v-24h364z"/><path d="m472.532 465.87c-5.901 0-11.456 1.511-16.299 4.164-4.907-12.782-17.302-21.883-31.791-21.883-9.378 0-17.882 3.812-24.045 9.966-6.163-6.155-14.667-9.966-24.045-9.966-5.007 0-9.76 1.095-14.045 3.044v-58.997c0-18.772-15.272-34.045-34.046-34.045-18.772 0-34.045 15.272-34.045 34.045v109.802c0 5.522 4.478 10 10 10s10-4.478 10-10v-109.801c0-7.744 6.301-14.045 14.045-14.045 7.745 0 14.046 6.301 14.046 14.045v109.801c0 5.522 4.478 10 10 10s10-4.478 10-10v-19.804c0-7.744 6.301-14.045 14.045-14.045s14.045 6.301 14.045 14.045v19.804c0 5.522 4.478 10 10 10s10-4.478 10-10v-19.804c0-7.744 6.301-14.045 14.045-14.045s14.045 6.301 14.045 14.045v19.804c0 5.522 4.478 10 10 10s10-4.478 10-10v-2.085c0-7.744 6.301-14.045 14.045-14.045 7.745 0 14.046 6.301 14.046 14.045 0 5.522 4.478 10 10 10s10-4.478 10-10c0-18.772-15.272-34.045-34.046-34.045z"/><path d="m274.069 164.93c-1.859-1.86-4.439-2.93-7.069-2.93s-5.21 1.07-7.07 2.93-2.93 4.44-2.93 7.07 1.069 5.21 2.93 7.07 4.44 2.93 7.07 2.93 5.21-1.07 7.069-2.93c1.86-1.86 2.931-4.44 2.931-7.07s-1.07-5.21-2.931-7.07z"/></g></svg>