<?xml version="1.0" encoding="iso-8859-1"?>
<!-- Generator: Adobe Illustrator 19.0.0, SVG Export Plug-In . SVG Version: 6.00 Build 0)  -->
<svg version="1.1" id="Capa_1" xmlns="http://www.w3.org/2000/svg" xmlns:xlink="http://www.w3.org/1999/xlink" x="0px" y="0px"
	 viewBox="0 0 512 512" style="enable-background:new 0 0 512 512;" xml:space="preserve">
<g>
	<g>
		<path style="fill: #ffffff;" d="M502,0H10C4.478,0,0,4.477,0,10v438c0,5.522,4.478,10,10,10h207.5c5.522,0,10-4.478,10-10c0-5.522-4.478-10-10-10H20
			V91.949C20.33,91.982,20.665,92,21.004,92H492v346h-19.468c-5.522,0-10,4.478-10,10c0,5.522,4.478,10,10,10H502
			c5.522,0,10-4.478,10-10V10C512,4.477,507.522,0,502,0z M492,72H21.004c-0.339,0-0.674,0.018-1.004,0.051V20h472V72z"/>
	</g>
</g>
<g>
	<g>
		<path style="fill: #ffffff;" d="M267.069,440.93C265.21,439.069,262.63,438,260,438s-5.21,1.069-7.07,2.93c-1.86,1.861-2.93,4.44-2.93,7.07
			s1.069,5.21,2.93,7.069c1.86,1.86,4.44,2.931,7.07,2.931s5.21-1.07,7.069-2.931C268.93,453.21,270,450.63,270,448
			S268.93,442.79,267.069,440.93z"/>
	</g>
</g>
<g>
	<g>
		<path style="fill: #ffffff;" d="M448,36H222.065c-5.522,0-10,4.477-10,10s4.478,10,10,10H448c5.522,0,10-4.477,10-10S453.522,36,448,36z"/>
	</g>
</g>
<g>
	<g>
		<path style="fill: #ffffff;" d="M111.069,38.93C109.21,37.07,106.63,36,104,36s-5.21,1.07-7.07,2.93C95.069,40.79,94,43.37,94,46s1.069,5.21,2.93,7.07
			C98.791,54.93,101.37,56,104,56s5.21-1.07,7.069-2.93C112.93,51.21,114,48.63,114,46S112.93,40.79,111.069,38.93z"/>
	</g>
</g>
<g>
	<g>
		<path style="fill: #ffffff;" d="M71.069,38.93C69.21,37.07,66.63,36,64,36s-5.21,1.07-7.07,2.93C55.069,40.79,54,43.37,54,46s1.069,5.21,2.93,7.07
			C58.791,54.93,61.37,56,64,56s5.21-1.07,7.069-2.93C72.93,51.21,74,48.63,74,46S72.93,40.79,71.069,38.93z"/>
	</g>
</g>
<g>
	<g>
		<path style="fill: #ffffff;" d="M151.069,38.93C149.21,37.07,146.63,36,144,36s-5.21,1.07-7.07,2.93S134,43.37,134,46s1.069,5.21,2.93,7.07
			c1.861,1.86,4.44,2.93,7.07,2.93s5.21-1.07,7.069-2.93C152.93,51.21,154,48.63,154,46S152.93,40.79,151.069,38.93z"/>
	</g>
</g>
<g>
	<g>
		<path style="fill: #ffffff;" d="M313.58,308.146c-1.423-4.376-5.135-7.505-9.689-8.166l-25.659-3.722l-11.48-23.247c0-0.002-0.001-0.003-0.002-0.004
			c-2.038-4.122-6.159-6.683-10.758-6.683c-0.001,0-0.003,0-0.005,0c-4.6,0.002-8.722,2.565-10.758,6.692l-11.468,23.253
			l-25.661,3.735c-4.552,0.664-8.262,3.795-9.682,8.171c-1.42,4.376-0.255,9.088,3.04,12.3l18.571,18.092l-4.377,25.56
			c-0.774,4.533,1.056,9.029,4.777,11.731c2.104,1.527,4.563,2.303,7.04,2.303c1.907,0,3.826-0.46,5.6-1.393l22.945-12.071
			l22.953,12.06c4.072,2.141,8.914,1.79,12.636-0.917c3.722-2.703,5.55-7.2,4.772-11.737l-4.39-25.554l18.562-18.102
			C313.84,317.234,315.003,312.521,313.58,308.146z M275.011,327.168c-2.833,2.762-4.121,6.738-3.448,10.623l2.357,13.723
			l-12.334-6.48c-3.499-1.835-7.672-1.831-11.161,0.008l-12.322,6.482l2.35-13.723c0.667-3.893-0.623-7.862-3.453-10.623
			l-9.974-9.716l13.777-2.006c3.912-0.568,7.29-3.025,9.035-6.567l6.158-12.487l6.164,12.481c1.748,3.542,5.125,5.996,9.038,6.565
			l13.779,1.998L275.011,327.168z"/>
	</g>
</g>
<g>
	<g>
		<path style="fill: #ffffff;" d="M172.046,308.146c-1.423-4.376-5.135-7.505-9.689-8.166l-25.659-3.722l-11.48-23.247c0-0.002-0.001-0.003-0.002-0.004
			c-2.038-4.122-6.159-6.683-10.758-6.683c-0.001,0-0.003,0-0.005,0c-4.6,0.002-8.722,2.565-10.758,6.692l-11.468,23.253
			l-25.661,3.735c-4.552,0.664-8.262,3.795-9.682,8.171c-1.42,4.376-0.255,9.088,3.04,12.3l18.571,18.092l-4.377,25.56
			c-0.774,4.533,1.056,9.029,4.777,11.731c2.104,1.527,4.563,2.303,7.04,2.303c1.907,0,3.826-0.46,5.6-1.393l22.945-12.071
			l22.953,12.06c4.072,2.141,8.914,1.79,12.636-0.917c3.722-2.704,5.55-7.201,4.771-11.738l-4.39-25.553l18.562-18.103
			C172.306,317.234,173.469,312.521,172.046,308.146z M133.477,327.168c-2.828,2.758-4.118,6.729-3.449,10.623l2.357,13.722
			l-12.333-6.479c-3.5-1.835-7.673-1.831-11.161,0.008l-12.322,6.482l2.35-13.723c0.667-3.893-0.623-7.862-3.453-10.623
			l-9.974-9.716l13.777-2.006c3.912-0.568,7.29-3.025,9.035-6.567l6.158-12.487l6.164,12.481c1.748,3.542,5.125,5.996,9.038,6.565
			l13.779,1.998L133.477,327.168z"/>
	</g>
</g>
<g>
	<g>
		<path style="fill: #ffffff;" d="M455.116,308.177c-1.42-4.376-5.13-7.507-9.686-8.171l-25.657-3.735l-11.469-23.255c-2.035-4.125-6.157-6.688-10.757-6.69
			c-0.002,0-0.003,0-0.005,0c-4.599,0-8.721,2.561-10.758,6.683c-0.001,0.001-0.002,0.002-0.002,0.004l-11.48,23.247l-25.661,3.722
			c-4.553,0.661-8.265,3.79-9.688,8.166c-1.423,4.375-0.26,9.088,3.033,12.301l18.563,18.103l-4.392,25.556
			c-0.777,4.534,1.051,9.031,4.772,11.735c3.722,2.706,8.563,3.056,12.637,0.917l22.952-12.06l22.949,12.073
			c1.771,0.932,3.688,1.391,5.595,1.391c2.478,0,4.938-0.775,7.041-2.303c3.722-2.702,5.552-7.198,4.776-11.734l-4.376-25.557
			l18.572-18.093C455.371,317.265,456.536,312.553,455.116,308.177z M416.532,327.182c-2.827,2.757-4.117,6.727-3.45,10.617
			l2.35,13.725l-12.317-6.48c-1.749-0.921-3.669-1.382-5.59-1.382c-1.916,0-3.833,0.458-5.584,1.376l-12.325,6.476l2.357-13.723
			c0.669-3.894-0.621-7.864-3.448-10.622l-9.968-9.722l13.783-1.999c3.909-0.568,7.286-3.022,9.032-6.562l6.166-12.484l6.156,12.483
			c1.747,3.546,5.125,6.003,9.036,6.571l13.778,2.006L416.532,327.182z"/>
	</g>
</g>
<g>
	<g>
		<path style="fill: #ffffff;" d="M448,118H64c-5.522,0-10,4.477-10,10v107.974c0,5.523,4.478,10,10,10h384c5.522,0,10-4.477,10-10V128
			C458,122.477,453.522,118,448,118z M438,225.974H74V182h148.065c5.522,0,10-4.477,10-10s-4.478-10-10-10H74v-24h364V225.974z"/>
	</g>
</g>
<g>
	<g>
		<path style="fill: #ffffff;" d="M472.532,465.87c-5.901,0-11.456,1.511-16.299,4.164c-4.907-12.782-17.302-21.883-31.791-21.883
			c-9.378,0-17.882,3.812-24.045,9.966c-6.163-6.155-14.667-9.966-24.045-9.966c-5.007,0-9.76,1.095-14.045,3.044v-58.997
			c0-18.772-15.272-34.045-34.046-34.045c-18.772,0-34.045,15.272-34.045,34.045V502c0,5.522,4.478,10,10,10c5.522,0,10-4.478,10-10
			V392.199c0-7.744,6.301-14.045,14.045-14.045c7.745,0,14.046,6.301,14.046,14.045V502c0,5.522,4.478,10,10,10
			c5.522,0,10-4.478,10-10v-19.804c0-7.744,6.301-14.045,14.045-14.045s14.045,6.301,14.045,14.045V502c0,5.522,4.478,10,10,10
			c5.522,0,10-4.478,10-10v-19.804c0-7.744,6.301-14.045,14.045-14.045s14.045,6.301,14.045,14.045V502c0,5.522,4.478,10,10,10
			c5.522,0,10-4.478,10-10v-2.085c0-7.744,6.301-14.045,14.045-14.045c7.745,0,14.046,6.301,14.046,14.045c0,5.522,4.478,10,10,10
			c5.522,0,10-4.478,10-10C506.578,481.143,491.306,465.87,472.532,465.87z"/>
	</g>
</g>
<g>
	<g>
		<path style="fill: #ffffff;" d="M274.069,164.93C272.21,163.07,269.63,162,267,162s-5.21,1.07-7.07,2.93c-1.86,1.86-2.93,4.44-2.93,7.07
			s1.069,5.21,2.93,7.07c1.861,1.86,4.44,2.93,7.07,2.93s5.21-1.07,7.069-2.93c1.86-1.86,2.931-4.44,2.931-7.07
			S275.93,166.79,274.069,164.93z"/>
	</g>
</g>
<g>
</g>
<g>
</g>
<g>
</g>
<g>
</g>
<g>
</g>
<g>
</g>
<g>
</g>
<g>
</g>
<g>
</g>
<g>
</g>
<g>
</g>
<g>
</g>
<g>
</g>
<g>
</g>
<g>
</g>
</svg>
