<svg enable-background="new 0 0 480.001 480.001" viewBox="0 0 480.001 480.001" xmlns="http://www.w3.org/2000/svg"><g fill="#fff"><path d="m400.001 40.8v-32.8c0-4.418-3.582-8-8-8-.655 0-1.308.081-1.944.24l-127.032 31.76h-15.024c-26.509.112-47.909 21.692-47.797 48.202.092 21.891 14.985 40.947 36.205 46.326l3.536 10.592c-2.589-.711-5.259-1.088-7.944-1.12h-192c-22.08.026-39.974 17.92-40 40v296c0 4.418 3.582 8 8 8h112c13.255 0 24-10.745 24-24s-10.745-24-24-24h-8v-200h128c15.511-.038 28.761-11.195 31.44-26.472.464.248.864.576 1.336.8 14.782 6.855 32.323.429 39.179-14.353 3.167-6.829 3.604-14.61 1.221-21.751l-10.776-32.384 87.672 21.92c4.288 1.065 8.627-1.548 9.692-5.836.156-.629.235-1.275.236-1.924v-32.8c18.611-3.827 31.976-20.199 32-39.2-.024-19-13.389-35.372-32-39.2zm-184 39.2c0-17.673 14.327-32 32-32h8v64h-8c-17.673 0-32-14.327-32-32zm-112 104c-4.418 0-8 3.582-8 8v248c0 4.418 3.582 8 8 8h16c4.418 0 8 3.582 8 8s-3.582 8-8 8h-56v-136c0-4.418-3.582-8-8-8s-8 3.582-8 8v136h-32v-288c0-13.255 10.745-24 24-24h192c8.837 0 16 7.163 16 16s-7.163 16-16 16zm144.699 29.486c-2.594 1.665-5.617 2.539-8.7 2.515h-128v-16h120c7.97-.023 15.64-3.041 21.488-8.456 4.737 7.381 2.594 17.204-4.788 21.941zm41.501-21.406c-6.913 2.775-14.767-.58-17.542-7.493-.102-.254-.196-.511-.282-.771l-18.608-55.816h9.256l20.96 5.24 14.016 42.04c2.246 6.782-1.17 14.14-7.8 16.8zm93.8-50.328-112-28v-67.504l112-28zm30.645-53.765c-2.416 6.845-7.8 12.229-14.645 14.645v-45.264c12.499 4.411 19.056 18.12 14.645 30.619z"/><path d="m472.001 72h-16c-4.418 0-8 3.582-8 8s3.582 8 8 8h16c4.418 0 8-3.582 8-8s-3.582-8-8-8z"/><path d="m454.421 17.776c-3.07-3.178-8.134-3.266-11.312-.196-.067.064-.132.13-.196.196l-11.312 11.312c-3.178 3.069-3.266 8.134-.197 11.312s8.134 3.266 11.312.197c.067-.065.133-.13.197-.197l11.312-11.312c3.178-3.069 3.265-8.134.196-11.312z"/><path d="m454.225 130.912-11.312-11.312c-3.069-3.178-8.134-3.266-11.312-.196-3.178 3.069-3.266 8.134-.196 11.312.064.067.13.132.196.196l11.312 11.312c3.178 3.07 8.242 2.982 11.312-.196 2.994-3.1 2.994-8.015 0-11.116z"/><path d="m120.001 0h-56c-35.289-.057-63.943 28.503-64.001 63.792-.01 6.181.877 12.331 2.633 18.257l-.288.288.488.488c10.398 33.782 46.213 52.739 79.995 42.341 26.85-8.264 45.171-33.072 45.172-61.164v-56.002c.001-4.418-3.581-8-7.999-8zm-8 64c-.026 26.499-21.501 47.974-48 48-17.841-.015-34.202-9.924-42.48-25.728 24.849-22.745 56.838-36.137 90.48-37.88zm0-31.608c-35.075 1.571-68.673 14.571-95.672 37.016-3.089-26.227 15.669-49.992 41.896-53.08 1.917-.226 3.846-.335 5.776-.328h48z"/></g></svg>