<?xml version="1.0" encoding="iso-8859-1"?>
<!-- Generator: Adobe Illustrator 19.0.0, SVG Export Plug-In . SVG Version: 6.00 Build 0)  -->
<svg version="1.1" id="Capa_1" xmlns="http://www.w3.org/2000/svg" xmlns:xlink="http://www.w3.org/1999/xlink" x="0px" y="0px"
	 viewBox="0 0 480.001 480.001" style="enable-background:new 0 0 480.001 480.001;" xml:space="preserve">
<g>
	<g>
		<path style="fill: #ffffff;" d="M400.001,40.8V8c0-4.418-3.582-8-8-8c-0.655,0-1.308,0.081-1.944,0.24L263.025,32h-15.024
			c-26.509,0.112-47.909,21.692-47.797,48.202c0.092,21.891,14.985,40.947,36.205,46.326l3.536,10.592
			c-2.589-0.711-5.259-1.088-7.944-1.12h-192c-22.08,0.026-39.974,17.92-40,40v296c0,4.418,3.582,8,8,8h112
			c13.255,0,24-10.745,24-24s-10.745-24-24-24h-8V232h128c15.511-0.038,28.761-11.195,31.44-26.472
			c0.464,0.248,0.864,0.576,1.336,0.8c14.782,6.855,32.323,0.429,39.179-14.353c3.167-6.829,3.604-14.61,1.221-21.751
			l-10.776-32.384l87.672,21.92c4.288,1.065,8.627-1.548,9.692-5.836c0.156-0.629,0.235-1.275,0.236-1.924v-32.8
			c18.611-3.827,31.976-20.199,32-39.2C431.977,61,418.612,44.628,400.001,40.8z M216.001,80c0-17.673,14.327-32,32-32h8v64h-8
			C230.328,112,216.001,97.673,216.001,80z M104.001,184c-4.418,0-8,3.582-8,8v248c0,4.418,3.582,8,8,8h16c4.418,0,8,3.582,8,8
			s-3.582,8-8,8h-56V328c0-4.418-3.582-8-8-8s-8,3.582-8,8v136h-32V176c0-13.255,10.745-24,24-24h192c8.837,0,16,7.163,16,16
			s-7.163,16-16,16H104.001z M248.7,213.486c-2.594,1.665-5.617,2.539-8.7,2.515h-128v-16h120c7.97-0.023,15.64-3.041,21.488-8.456
			C258.225,198.926,256.082,208.749,248.7,213.486z M290.201,192.08c-6.913,2.775-14.767-0.58-17.542-7.493
			c-0.102-0.254-0.196-0.511-0.282-0.771L253.769,128h9.256l20.96,5.24l14.016,42.04C300.247,182.062,296.831,189.42,290.201,192.08
			z M384.001,141.752l-112-28V46.248l112-28V141.752z M414.646,87.987c-2.416,6.845-7.8,12.229-14.645,14.645V57.368
			C412.5,61.779,419.057,75.488,414.646,87.987z"/>
	</g>
</g>
<g>
	<g>
		<path style="fill: #ffffff;" d="M472.001,72h-16c-4.418,0-8,3.582-8,8s3.582,8,8,8h16c4.418,0,8-3.582,8-8S476.419,72,472.001,72z"/>
	</g>
</g>
<g>
	<g>
		<path style="fill: #ffffff;" d="M454.421,17.776c-3.07-3.178-8.134-3.266-11.312-0.196c-0.067,0.064-0.132,0.13-0.196,0.196l-11.312,11.312
			c-3.178,3.069-3.266,8.134-0.197,11.312s8.134,3.266,11.312,0.197c0.067-0.065,0.133-0.13,0.197-0.197l11.312-11.312
			C457.403,26.019,457.49,20.954,454.421,17.776z"/>
	</g>
</g>
<g>
	<g>
		<path style="fill: #ffffff;" d="M454.225,130.912L442.913,119.6c-3.069-3.178-8.134-3.266-11.312-0.196c-3.178,3.069-3.266,8.134-0.196,11.312
			c0.064,0.067,0.13,0.132,0.196,0.196l11.312,11.312c3.178,3.07,8.242,2.982,11.312-0.196
			C457.219,138.928,457.219,134.013,454.225,130.912z"/>
	</g>
</g>
<g>
	<g>
		<path style="fill: #ffffff;" d="M120.001,0h-56C28.712-0.057,0.058,28.503,0,63.792c-0.01,6.181,0.877,12.331,2.633,18.257l-0.288,0.288l0.488,0.488
			c10.398,33.782,46.213,52.739,79.995,42.341c26.85-8.264,45.171-33.072,45.172-61.164V8C128.001,3.582,124.419,0,120.001,0z
			 M112.001,64c-0.026,26.499-21.501,47.974-48,48c-17.841-0.015-34.202-9.924-42.48-25.728
			c24.849-22.745,56.838-36.137,90.48-37.88V64z M112.001,32.392c-35.075,1.571-68.673,14.571-95.672,37.016
			c-3.089-26.227,15.669-49.992,41.896-53.08c1.917-0.226,3.846-0.335,5.776-0.328h48V32.392z"/>
	</g>
</g>
<g>
</g>
<g>
</g>
<g>
</g>
<g>
</g>
<g>
</g>
<g>
</g>
<g>
</g>
<g>
</g>
<g>
</g>
<g>
</g>
<g>
</g>
<g>
</g>
<g>
</g>
<g>
</g>
<g>
</g>
</svg>
