<svg enable-background="new 0 0 512 512" viewBox="0 0 512 512" xmlns="http://www.w3.org/2000/svg"><g fill="#fff"><path d="m117.333 149.333h234.667c5.896 0 10.667-4.771 10.667-10.667s-4.771-10.667-10.667-10.667h-234.667c-5.896 0-10.667 4.771-10.667 10.667.001 5.897 4.772 10.667 10.667 10.667z"/><path d="m245.333 256h-128c-5.896 0-10.667 4.771-10.667 10.667s4.771 10.667 10.667 10.667h128c5.896 0 10.667-4.771 10.667-10.667s-4.771-10.667-10.667-10.667z"/><path d="m471.167 64c-.618 0-1.217.155-1.833.184v-.184c0-23.531-19.146-42.667-42.667-42.667h-384c-23.521 0-42.667 19.136-42.667 42.667v416c0 4.313 2.604 8.208 6.583 9.854 1.313.552 2.708.813 4.083.813 2.771 0 5.5-1.083 7.542-3.125l103.542-103.542h304.917c23.521 0 42.667-19.135 42.667-42.667v-176.922l30.708-30.703s0 0 0-.01c7.604-7.604 11.958-18.125 11.958-28.865 0-22.52-18.312-40.833-40.833-40.833zm-23.167 277.333c0 11.76-9.563 21.333-21.333 21.333h-309.334c-2.833 0-5.542 1.125-7.542 3.125l-88.458 88.459v-390.25c0-11.76 9.563-21.333 21.333-21.333h384c11.772 0 21.334 9.573 21.334 21.333v7.286c-2.025 1.392-3.962 2.923-5.708 4.672l-116.06 116.042h-208.899c-5.896 0-10.667 4.771-10.667 10.667s4.771 10.667 10.667 10.667h191.785l-10.243 51.24c-.708 3.5.396 7.115 2.917 9.635 2.021 2.021 4.75 3.125 7.542 3.125.688 0 1.396-.073 2.083-.208l53.313-10.667c2.083-.417 3.979-1.427 5.458-2.917l77.812-77.8zm-90.604-95.156-34.458 6.896 6.896-34.5 96.828-96.828 27.587 27.587zm127.562-127.552-15.625 15.625-27.589-27.589 15.63-15.63c3.625-3.615 8.646-5.698 13.792-5.698 10.75 0 19.5 8.75 19.5 19.5.001 5.125-2.083 10.157-5.708 13.792z"/></g></svg>