<svg viewBox="0 0 117.75 30" xmlns="http://www.w3.org/2000/svg"><path d="m113.09 19-.28.14-.46.2a6.49 6.49 0 0 1 -.8.3c-.26.08-.54.14-.82.2a6.69 6.69 0 0 1 -.88.14c-.3 0-.58 0-.86 0s-.58 0-.88 0a6.69 6.69 0 0 1 -.88-.14c-.28-.06-.54-.12-.82-.2a6.49 6.49 0 0 1 -.8-.3l-.46-.2h-6.04v-2c-.14-.1-.26-.22-.4-.34s-.42-.38-.6-.56-.6-.62-.88-1a13.07 13.07 0 0 1 -.78-1.06 11.89 11.89 0 0 1 -.7-1.12 11 11 0 0 1 -.56-1.2 8.55 8.55 0 0 1 -.46-1.26c-.14-.42-.24-.86-.34-1.3a11.6 11.6 0 0 1 -.18-1.16c0-.36-.08-.76-.1-1.16v.02c0-.18 0-.36 0-.56a5.38 5.38 0 0 1 .08-.56 3.94 3.94 0 0 1 .14-.52c.06-.18.12-.36.18-.52s.16-.34.24-.48a3.51 3.51 0 0 1 .33-.36c.1-.14.2-.3.32-.44s.24-.28.36-.4l.4-.36c.14-.12.28-.22.42-.32l.42-.32a5.1 5.1 0 0 1 .48-.22c.18-.08.36-.14.52-.2a5.21 5.21 0 0 1 .54-.12 4.64 4.64 0 0 1 .56-.1 5.23 5.23 0 0 1 .56 0 4 4 0 0 1 1.12.12 4 4 0 0 1 .52.12 5.53 5.53 0 0 1 .52.2 5.1 5.1 0 0 1 .48.22h7.26l3.95 4v9l1.54 1.54.42.4-.42.42q-.27.27-.6.54a3.94 3.94 0 0 1 -.68.5 6 6 0 0 1 -.7.44zm-11.67-12.77a.88.88 0 0 1 .62.26.81.81 0 0 1 .26.62.88.88 0 0 1 -.26.62.92.92 0 0 1 -1.24 0 1 1 0 0 1 -.26-.56c0 .08-.1.14-.14.22a3.52 3.52 0 0 0 -.62 2v.06l-.18.16-.18-.16v-.09a3.86 3.86 0 0 0 -.62-2l-.16-.22a1 1 0 0 1 -.24.56.92.92 0 0 1 -1.24 0 .88.88 0 0 1 -.26-.62.81.81 0 0 1 .26-.62.88.88 0 0 1 .62-.26h.08a.84.84 0 0 1 .3.08 2.4 2.4 0 0 1 .94.88 4 4 0 0 1 .5 1.06 4 4 0 0 1 .5-1.06 2.4 2.4 0 0 1 .94-.88.65.65 0 0 1 .28-.08h.1zm2.19-3.11.34.4a3 3 0 0 1 .32.44 2.55 2.55 0 0 1 .28.46 5.34 5.34 0 0 1 .24.48 4 4 0 0 1 .2.52c0 .16.08.34.12.52a5.47 5.47 0 0 1 .1.56v.36l7.34 7.36v-7.72l-3.37-3.37zm.06 15.1a1.1 1.1 0 0 1 -.18-.14q-.33-.27-.6-.54a8.22 8.22 0 0 1 -.56-.62 5.38 5.38 0 0 1 -.5-.68c-.16-.22-.3-.46-.44-.7s-.24-.5-.36-.76-.2-.54-.3-.8-.14-.54-.2-.82-.08-.42-.1-.64a3.46 3.46 0 0 1 -.06-.64l1.14-.06a4.9 4.9 0 0 0 0 .56 5.1 5.1 0 0 0 .1.54 4.72 4.72 0 0 0 .18.72 7.21 7.21 0 0 0 .26.7 6.25 6.25 0 0 0 .3.64 6.4 6.4 0 0 0 .38.62c.14.22.3.4.44.58a6.13 6.13 0 0 0 1 1 4.4 4.4 0 0 0 .58.44c.2.14.42.26.62.38a3.72 3.72 0 0 0 .64.3c.24.1.46.18.7.26a8.84 8.84 0 0 0 1.46.3h.78s.52 0 .76 0a4.38 4.38 0 0 0 .74-.12 4.72 4.72 0 0 0 .72-.18 7.21 7.21 0 0 0 .7-.26 3.72 3.72 0 0 0 .64-.3 6.4 6.4 0 0 0 .62-.38 4.4 4.4 0 0 0 .58-.44l.12-.08-9.61-9.61-.16-.18v-.31c0-.16 0-.32 0-.44a2.86 2.86 0 0 0 -.08-.44 3.47 3.47 0 0 0 -.1-.44 1.38 1.38 0 0 0 -.08-.2 1.92 1.92 0 0 0 -.36-.44 2.25 2.25 0 0 0 -.86-.58 2.5 2.5 0 0 0 -1-.2 3.09 3.09 0 0 0 -.44 0 2.82 2.82 0 0 0 -.44.12 1.76 1.76 0 0 0 -.4.18 1.41 1.41 0 0 0 -.36.24l-.1.08-.12.16v.06l-.06-.06-.16-.04-.08-.08a2 2 0 0 0 -.42-.29 1.44 1.44 0 0 0 -.4-.18 2.82 2.82 0 0 0 -.44-.12 3.09 3.09 0 0 0 -.44 0 2.5 2.5 0 0 0 -1 .2 2.25 2.25 0 0 0 -.86.58 1.81 1.81 0 0 0 -.36.42c0 .08 0 .16-.06.22a3.59 3.59 0 0 0 -.12.44c0 .14 0 .28-.06.44a3 3 0 0 0 0 .44 9.79 9.79 0 0 0 .08 1.06c0 .36.1.72.16 1.06a11.29 11.29 0 0 0 .3 1.18c.14.4.28.8.44 1.16a7.85 7.85 0 0 0 .52 1.1c.18.34.4.68.62 1s.48.66.72 1a11.11 11.11 0 0 0 .82.9 6.13 6.13 0 0 0 .54.5 6.94 6.94 0 0 0 .56.48l.22.16v1.62zm-1.3-14.66-.24-.16a3.47 3.47 0 0 0 -.36-.22 3.47 3.47 0 0 0 -.38-.2l-.39-.14a3.19 3.19 0 0 0 -.42-.1 2.86 2.86 0 0 0 -.44-.08h-.44-.46a3.38 3.38 0 0 0 -.44.08 3.19 3.19 0 0 0 -.42.1l-.38.16-.4.2a3.47 3.47 0 0 0 -.36.22 2.09 2.09 0 0 0 -.22.16 3.47 3.47 0 0 1 .78-.1 2.71 2.71 0 0 1 .58.06 4.57 4.57 0 0 1 .56.14 2.21 2.21 0 0 1 .54.24 1.49 1.49 0 0 1 .24.14.82.82 0 0 1 .22-.14 2.21 2.21 0 0 1 .54-.24 4.57 4.57 0 0 1 .56-.14 2.71 2.71 0 0 1 .58-.06 3.5 3.5 0 0 1 .76.08z" fill="#4b4b4d"/><path d="m109.16 3.12v3.37h3.37z" fill="#ebd178"/><g fill="#4b4b4d"><path d="m86.38 11.39a1 1 0 0 0 .26.72 1.89 1.89 0 0 0 .72.48 5.62 5.62 0 0 0 1 .32c.38.1.76.2 1.16.28s.76.22 1.14.34a4.66 4.66 0 0 1 1 .5 2.61 2.61 0 0 1 .7.78 2.15 2.15 0 0 1 .26 1.12 3.54 3.54 0 0 1 0 .64 2.76 2.76 0 0 1 -.2.66 2.42 2.42 0 0 1 -.42.62 2.81 2.81 0 0 1 -.7.54 5 5 0 0 1 -1 .36 7.36 7.36 0 0 1 -1.42.12 10.65 10.65 0 0 1 -1.38-.1 6.74 6.74 0 0 1 -1.26-.34 3.06 3.06 0 0 1 -.92-.5.86.86 0 0 1 -.36-.66.62.62 0 0 1 .1-.34.33.33 0 0 1 .3-.16 1.21 1.21 0 0 1 .44.14l.68.3a6.91 6.91 0 0 0 1 .28 5.69 5.69 0 0 0 1.4.14 4.86 4.86 0 0 0 1-.1 2.89 2.89 0 0 0 .76-.32 1.39 1.39 0 0 0 .52-.5 1.37 1.37 0 0 0 .18-.72 1 1 0 0 0 -.26-.74 2.12 2.12 0 0 0 -.72-.46 4.32 4.32 0 0 0 -1-.32l-1.16-.3c-.38-.1-.76-.2-1.14-.34a3.34 3.34 0 0 1 -1-.5 2.39 2.39 0 0 1 -.7-.78 2.18 2.18 0 0 1 -.36-1.14 2.29 2.29 0 0 1 .3-1.18 2.35 2.35 0 0 1 .7-.83 3.84 3.84 0 0 1 1.12-.52 6 6 0 0 1 1.36-.16h.58s.46 0 .7.08.48.1.7.16a3.42 3.42 0 0 1 .68.26 2.61 2.61 0 0 1 .54.38 1.45 1.45 0 0 1 .34.56.68.68 0 0 1 0 .2.45.45 0 0 1 -.06.22.37.37 0 0 1 -.16.14.5.5 0 0 1 -.26.06.89.89 0 0 1 -.4-.12c-.16-.1-.34-.18-.58-.3s-.54-.18-.88-.28a5.52 5.52 0 0 0 -1.18-.08 3.06 3.06 0 0 0 -1 .14 2 2 0 0 0 -.66.36 1.25 1.25 0 0 0 -.34.48.93.93 0 0 0 -.12.41zm-81.38 3.02h6.92l-2.53-7.46a1.3 1.3 0 0 0 -.64-.7.7.7 0 0 0 -.34-.08.84.84 0 0 0 -.3.08 1.2 1.2 0 0 0 -.6.68zm7.36 1.3h-7.79l-.92 2.71a.74.74 0 0 1 -.92.46.71.71 0 0 1 -.44-.88l3.87-11.55v-.06a2.71 2.71 0 0 1 1.38-1.46 2.36 2.36 0 0 1 1.76 0 2.71 2.71 0 0 1 1.42 1.48v.06l3.92 11.53a.73.73 0 0 1 -1.38.46zm5.29-5.62v5.68a3.67 3.67 0 0 0 .1.88 1.24 1.24 0 0 0 1 .88 3.49 3.49 0 0 0 .86.1 2.24 2.24 0 0 0 .8-.12 2.31 2.31 0 0 0 .54-.22l.34-.24a.43.43 0 0 1 .26-.12.39.39 0 0 1 .36.16.69.69 0 0 1 .1.36.88.88 0 0 1 -.2.5 1.73 1.73 0 0 1 -.54.46 2.8 2.8 0 0 1 -.82.34 3.91 3.91 0 0 1 -1 .12 7.29 7.29 0 0 1 -1.14-.1 3 3 0 0 1 -1-.42 2.33 2.33 0 0 1 -.74-.84 3.1 3.1 0 0 1 -.28-1.4v-6a1.72 1.72 0 0 1 -.32 0 .65.65 0 0 1 -.28-.08.54.54 0 0 1 -.2-.22 1 1 0 0 1 -.06-.4.68.68 0 0 1 0-.3.35.35 0 0 1 .16-.18.5.5 0 0 1 .26-.06 2.54 2.54 0 0 1 .4 0v-1.68a.35.35 0 0 1 .22-.34 1.75 1.75 0 0 1 .48-.06h.26l.22.06a.54.54 0 0 1 .16.14.34.34 0 0 1 .06.2v1.63h2.93a2.17 2.17 0 0 0 .34 0 2.2 2.2 0 0 1 .36 0 .78.78 0 0 1 .28.16.54.54 0 0 1 .12.38.91.91 0 0 1 -.1.46.4.4 0 0 1 -.3.22h-.32-3.33zm7.76 0v5.68a2.83 2.83 0 0 0 .12.88 1.24 1.24 0 0 0 1 .88 3.49 3.49 0 0 0 .86.1 2.24 2.24 0 0 0 .8-.12 2.31 2.31 0 0 0 .54-.22l.27-.29a.43.43 0 0 1 .26-.12.39.39 0 0 1 .36.16.69.69 0 0 1 .1.36.88.88 0 0 1 -.2.5 1.73 1.73 0 0 1 -.54.46 2.8 2.8 0 0 1 -.82.34 4 4 0 0 1 -1 .12 7.26 7.26 0 0 1 -1.12-.1 3 3 0 0 1 -1-.42 2.33 2.33 0 0 1 -.74-.84 3.1 3.1 0 0 1 -.3-1.36v-6a1.61 1.61 0 0 1 -.32 0 .58.58 0 0 1 -.28-.08.54.54 0 0 1 -.2-.22.93.93 0 0 1 -.08-.4.67.67 0 0 1 .06-.3.35.35 0 0 1 .16-.18.5.5 0 0 1 .26-.06 2.42 2.42 0 0 1 .4 0v-1.67a.35.35 0 0 1 .22-.34 1.75 1.75 0 0 1 .48-.06h.3l.22.06a.47.47 0 0 1 .14.14.34.34 0 0 1 .06.2v1.63h3a2.17 2.17 0 0 0 .34 0 2.2 2.2 0 0 1 .36 0 .78.78 0 0 1 .28.16.54.54 0 0 1 .12.38 1.18 1.18 0 0 1 -.1.46.4.4 0 0 1 -.3.22h-.32-3.41zm19.59-1.37a4.91 4.91 0 0 1 .88.12 2.22 2.22 0 0 1 .62.28.83.83 0 0 1 .34.36.85.85 0 0 1 .12.44.5.5 0 0 1 0 .16c0 .06 0 .1-.06.16a.27.27 0 0 1 -.14.12.43.43 0 0 1 -.24.06.46.46 0 0 1 -.28-.08 3.19 3.19 0 0 0 -.66-.3 3.23 3.23 0 0 0 -.7-.06 6.6 6.6 0 0 0 -1.4.12 3.39 3.39 0 0 0 -.8.26.92.92 0 0 0 -.38.34.43.43 0 0 0 -.1.26v7.48a.36.36 0 0 1 -.06.22.31.31 0 0 1 -.16.12.71.71 0 0 1 -.22.08h-.26a1.21 1.21 0 0 1 -.48-.08.32.32 0 0 1 -.2-.34v-7.94a1 1 0 0 1 .18-.58 1.87 1.87 0 0 1 .5-.46 3 3 0 0 1 .72-.36 5.9 5.9 0 0 1 .9-.24 7 7 0 0 1 1-.12c.22-.02.54-.02.88-.02zm4.85 9.73a.36.36 0 0 1 -.06.22.31.31 0 0 1 -.16.12.4.4 0 0 1 -.22.06h-.24a1.8 1.8 0 0 1 -.5-.06c-.14 0-.2-.16-.2-.34v-8.13a1 1 0 0 1 .38-.84 2.84 2.84 0 0 1 1-.48 6.77 6.77 0 0 1 1.54-.22c.6 0 1.22-.06 1.89-.06a3.48 3.48 0 0 1 1.68.36 2.5 2.5 0 0 1 1 1 4.55 4.55 0 0 1 .5 1.6 13.76 13.76 0 0 1 .14 2.11v4.65a.36.36 0 0 1 -.06.22.31.31 0 0 1 -.16.12.4.4 0 0 1 -.22.06h-.24a1.8 1.8 0 0 1 -.5-.06c-.14 0-.2-.16-.2-.34v-4.13c0-.76 0-1.42-.08-2a4 4 0 0 0 -.31-1.31 1.68 1.68 0 0 0 -.68-.8 2.73 2.73 0 0 0 -1.24-.2c-.5 0-.94 0-1.3 0a8.32 8.32 0 0 0 -.88.1 2 2 0 0 0 -.52.16 1 1 0 0 0 -.3.2.61.61 0 0 0 -.1.24 1.32 1.32 0 0 0 0 .28zm-14.85.4a6.17 6.17 0 0 1 -1.6-.18 3.07 3.07 0 0 1 -1.12-.54 2.8 2.8 0 0 1 -.74-.8 4.34 4.34 0 0 1 -.42-1 7.49 7.49 0 0 1 -.2-1.2c0-.42-.06-.86-.06-1.3 0-.44 0-.88.06-1.3a7.49 7.49 0 0 1 .2-1.2 4.19 4.19 0 0 1 .42-1 2.63 2.63 0 0 1 .74-.82 3.88 3.88 0 0 1 1.12-.54 6.17 6.17 0 0 1 1.6-.25h.06a6.28 6.28 0 0 1 1.6.18 3.88 3.88 0 0 1 1.12.54 2.63 2.63 0 0 1 .74.82 3.57 3.57 0 0 1 .44 1 7.51 7.51 0 0 1 .18 1.2c0 .42.06.86.06 1.3 0 .44 0 .88-.06 1.3a7.51 7.51 0 0 1 -.14 1.24 3.69 3.69 0 0 1 -.44 1 2.8 2.8 0 0 1 -.74.8 3.07 3.07 0 0 1 -1.12.54 6.28 6.28 0 0 1 -1.6.18zm.12-1.24a3.44 3.44 0 0 0 1.4-.24 1.8 1.8 0 0 0 .82-.72 3 3 0 0 0 .38-1.16 11.76 11.76 0 0 0 .1-1.56v-.32a12 12 0 0 0 -.1-1.56 3.16 3.16 0 0 0 -.38-1.16 1.88 1.88 0 0 0 -.82-.7 3.44 3.44 0 0 0 -1.4-.24h-.12a3.38 3.38 0 0 0 -1.4.24 1.88 1.88 0 0 0 -.82.7 2.83 2.83 0 0 0 -.38 1.16 12.25 12.25 0 0 0 -.08 1.56v.32a12.25 12.25 0 0 0 .08 1.56 2.83 2.83 0 0 0 .38 1.16 1.88 1.88 0 0 0 .82.7 3.06 3.06 0 0 0 1.4.26zm34.74-7.54v5.68a2.83 2.83 0 0 0 .12.88 1.64 1.64 0 0 0 .34.58 1.38 1.38 0 0 0 .62.3 3.49 3.49 0 0 0 .86.1 2.92 2.92 0 0 0 1.34-.34l.36-.27a.43.43 0 0 1 .26-.12.39.39 0 0 1 .36.16.68.68 0 0 1 .08.36.85.85 0 0 1 -.18.5 1.73 1.73 0 0 1 -.54.46 3.05 3.05 0 0 1 -.82.34 4.18 4.18 0 0 1 -1 .12 7 7 0 0 1 -1.12-.1 3 3 0 0 1 -1-.42 2.16 2.16 0 0 1 -.74-.84 3.1 3.1 0 0 1 -.28-1.4v-6a1.61 1.61 0 0 1 -.32 0 .58.58 0 0 1 -.28-.08.36.36 0 0 1 -.2-.22.7.7 0 0 1 -.08-.4.67.67 0 0 1 .06-.3.32.32 0 0 1 .14-.18.58.58 0 0 1 .28-.06 2.42 2.42 0 0 1 .4 0v-1.63a.33.33 0 0 1 .2-.34 2 2 0 0 1 .5-.06h.26l.2.06a.37.37 0 0 1 .16.14.34.34 0 0 1 .06.2v1.63h3a1.94 1.94 0 0 0 .32 0 1.79 1.79 0 0 1 .36 0 .72.72 0 0 1 .3.16.54.54 0 0 1 .12.38.93.93 0 0 1 -.12.46.34.34 0 0 1 -.28.22h-.34-3.37zm12.29-1a.4.4 0 0 1 .06-.22.55.55 0 0 1 .16-.12.72.72 0 0 1 .22 0 1 1 0 0 1 .24 0 1.31 1.31 0 0 1 .5.08c.14 0 .2.14.2.32v8.24a.94.94 0 0 1 -.38.8 2.53 2.53 0 0 1 -1 .46 8.22 8.22 0 0 1 -1.54.2c-.6 0-1.22 0-1.89 0a3.48 3.48 0 0 1 -1.72-.34 2.5 2.5 0 0 1 -1-1 4.55 4.55 0 0 1 -.5-1.6 13.85 13.85 0 0 1 -.14-2.13v-4.66a.4.4 0 0 1 .06-.22l.16-.12a.72.72 0 0 1 .22 0 1 1 0 0 1 .24 0 1.25 1.25 0 0 1 .5.08c.14 0 .2.14.2.32v4.13a18.85 18.85 0 0 0 .08 2 4.11 4.11 0 0 0 .32 1.36 1.54 1.54 0 0 0 .68.78 2.48 2.48 0 0 0 1.24.26h1.3s.64 0 .88-.08a2.1 2.1 0 0 0 .52-.14 1.31 1.31 0 0 0 .3-.18.61.61 0 0 0 .1-.24 1.05 1.05 0 0 0 0-.26zm-17.69 9.58c-.38 0-.82.06-1.36.12a15.38 15.38 0 0 1 -1.74.08 3.65 3.65 0 0 1 -1.76-.36 2.58 2.58 0 0 1 -1-1 4.38 4.38 0 0 1 -.46-1.5 18 18 0 0 1 -.1-1.85v-.14a11.7 11.7 0 0 1 .2-2.33 4.63 4.63 0 0 1 .64-1.66 2.63 2.63 0 0 1 1.1-1 3.34 3.34 0 0 1 1.62-.34h1.06a9 9 0 0 1 1.06.16 4.9 4.9 0 0 1 1 .32 2.71 2.71 0 0 1 .78.54 2.55 2.55 0 0 1 .54.8 3.09 3.09 0 0 1 .18 1.1v6.41a.82.82 0 0 1 -.08.42.75.75 0 0 1 -.24.26 1 1 0 0 1 -.36.14 2.81 2.81 0 0 1 -.42 0zm.32-6.65a3.09 3.09 0 0 0 0-.42 2 2 0 0 0 -.12-.46 1.69 1.69 0 0 0 -.26-.44 1.91 1.91 0 0 0 -.48-.38 2.91 2.91 0 0 0 -.74-.24 4.37 4.37 0 0 0 -1.1-.1c-.2 0-.4 0-.62 0a2.22 2.22 0 0 0 -.6.16 1.9 1.9 0 0 0 -.56.36 2 2 0 0 0 -.46.64 4.39 4.39 0 0 0 -.3 1 7 7 0 0 0 -.12 1.4v1a6.6 6.6 0 0 0 .16 1.58 2.16 2.16 0 0 0 .42.9 1.5 1.5 0 0 0 .74.46 3.69 3.69 0 0 0 1 .12 8.49 8.49 0 0 0 1.52-.12l1.2-.14h.18.14z"/><path d="m26.67 26.63a1.1 1.1 0 0 1 -.8.3h-1.05v1.5h-.31v-3.43a.28.28 0 0 1 .32-.3h1.1a1 1 0 0 1 .76.31 1.12 1.12 0 0 1 .3.81 1.09 1.09 0 0 1 -.32.81zm-.77-1.63h-1.08v1.69h1.05a.85.85 0 0 0 0-1.69z"/><path d="m30.84 28.43h-.36l-.71-1.54h-1.31v1.54h-.32v-3.43a.27.27 0 0 1 .31-.3h1.22a.9.9 0 0 1 1 1 1.2 1.2 0 0 1 -.27.72l-.31.4zm-1.2-3.43h-1.18v1.64h1.4l.22-.3a1.15 1.15 0 0 0 .25-.62c0-.51-.23-.72-.69-.72z"/><path d="m34.63 28a1.6 1.6 0 0 1 -1.23.49 1.58 1.58 0 0 1 -1.22-.5 2 2 0 0 1 -.45-1.4 2 2 0 0 1 .46-1.4 1.6 1.6 0 0 1 1.24-.5 1.54 1.54 0 0 1 1.21.5 2.37 2.37 0 0 1 0 2.8zm-1.22-3a1.25 1.25 0 0 0 -1 .42 2.14 2.14 0 0 0 0 2.38 1.26 1.26 0 0 0 1 .42c.84 0 1.34-.58 1.34-1.62s-.49-1.6-1.34-1.6z"/><path d="m36.63 25.15a1.54 1.54 0 0 1 1.18-.48 3.27 3.27 0 0 1 1 .19l.24.07-.06.3-.25-.07a3.4 3.4 0 0 0 -.89-.18c-.82 0-1.3.52-1.3 1.59s.48 1.59 1.3 1.59a3.29 3.29 0 0 0 .85-.16l.25-.07.06.3-.24.08a3.38 3.38 0 0 1 -1 .18 1.55 1.55 0 0 1 -1.16-.49 2 2 0 0 1 -.44-1.43 2 2 0 0 1 .46-1.42z"/><path d="m42.93 27.11a1.41 1.41 0 0 1 -2.81 0v-2.42h.33v2.42a1.08 1.08 0 1 0 2.17 0v-2.42h.32z"/><path d="m47 28.43h-.36l-.71-1.54h-1.34v1.54h-.32v-3.43a.27.27 0 0 1 .31-.3h1.22a.9.9 0 0 1 1 1 1.2 1.2 0 0 1 -.27.72l-.31.4zm-1.23-3.43h-1.18v1.64h1.41l.22-.3a1.15 1.15 0 0 0 .25-.62c-.01-.51-.24-.72-.7-.72z"/><path d="m50.92 28.43h-.35l-.33-.86h-1.86l-.33.86h-.34l1.36-3.58a.27.27 0 0 1 .52 0zm-.77-1.15-.82-2.28-.85 2.28z"/><path d="m54.43 27.94a1.55 1.55 0 0 1 -1.2.49h-1a.29.29 0 0 1 -.33-.3v-3.13a.29.29 0 0 1 .33-.31h1a1.5 1.5 0 0 1 1.19.5 2 2 0 0 1 .45 1.38 1.94 1.94 0 0 1 -.44 1.37zm-.24-2.53a1.25 1.25 0 0 0 -1-.43h-.9v3.16h.94c.85 0 1.34-.57 1.34-1.57a1.72 1.72 0 0 0 -.38-1.16z"/><path d="m58.85 28a1.6 1.6 0 0 1 -1.23.49 1.58 1.58 0 0 1 -1.22-.49 2 2 0 0 1 -.45-1.4 2 2 0 0 1 .46-1.4 1.6 1.6 0 0 1 1.24-.5 1.54 1.54 0 0 1 1.21.5 2.37 2.37 0 0 1 0 2.8zm-1.22-3a1.25 1.25 0 0 0 -1 .42 2.14 2.14 0 0 0 0 2.38 1.26 1.26 0 0 0 1 .42c.84 0 1.34-.58 1.34-1.62s-.5-1.6-1.34-1.6z"/><path d="m63.23 28.43h-.36l-.71-1.54h-1.31v1.54h-.32v-3.43a.27.27 0 0 1 .31-.3h1.22a.9.9 0 0 1 1 1 1.21 1.21 0 0 1 -.27.72l-.31.4zm-1.23-3.43h-1.15v1.64h1.4l.22-.3a1.15 1.15 0 0 0 .25-.62c0-.51-.23-.72-.72-.72z"/><path d="m64.64 28.43h-.33v-3.74h.33z"/><path d="m68.87 28.43h-.35l-.33-.86h-1.86l-.33.86h-.34l1.34-3.59a.27.27 0 0 1 .52 0zm-.77-1.15-.82-2.28-.85 2.28z"/><path d="m75 27.94a1.55 1.55 0 0 1 -1.2.49h-1a.29.29 0 0 1 -.33-.3v-3.13a.29.29 0 0 1 .33-.31h1a1.5 1.5 0 0 1 1.19.5 2 2 0 0 1 .45 1.38 1.94 1.94 0 0 1 -.44 1.37zm-.24-2.53a1.25 1.25 0 0 0 -1-.43h-.9v3.16h.94c.85 0 1.34-.57 1.34-1.57a1.72 1.72 0 0 0 -.39-1.16z"/><path d="m77 28.43h-.33v-3.74h.33z"/><path d="m78.69 28a1.93 1.93 0 0 1 -.48-1.42 1.94 1.94 0 0 1 .47-1.42 1.66 1.66 0 0 1 1.24-.48 3.82 3.82 0 0 1 1 .19l.24.07-.07.31-.26-.07a3.72 3.72 0 0 0 -.94-.18c-.87 0-1.37.52-1.37 1.59s.55 1.6 1.41 1.6a4.17 4.17 0 0 0 .92-.12v-1.07h-.93v-.28h.93a.27.27 0 0 1 .31.3v1c0 .19-.08.27-.28.33a3.73 3.73 0 0 1 -.94.13 1.73 1.73 0 0 1 -1.25-.48z"/><path d="m82.77 28.43h-.33v-3.74h.33z"/><path d="m86.6 25h-1.2v3.44h-.33v-3.44h-1.19v-.3h2.72z"/><path d="m90 28.43h-.35l-.33-.86h-1.83l-.33.86h-.34l1.36-3.58a.26.26 0 0 1 .26-.19.26.26 0 0 1 .26.18zm-.77-1.15-.79-2.28-.85 2.28z"/><path d="m93.27 28.43h-1.89a.28.28 0 0 1 -.32-.3v-3.44h.33v3.44h1.87z"/></g></svg>