<?xml version="1.0" encoding="utf-8"?>
<!-- Generator: Adobe Illustrator 20.0.0, SVG Export Plug-In . SVG Version: 6.00 Build 0)  -->
<svg version="1.1" id="Camada_1" xmlns="http://www.w3.org/2000/svg" xmlns:xlink="http://www.w3.org/1999/xlink" x="0px" y="0px"
	 viewBox="0 0 1000 1000" style="enable-background:new 0 0 1000 1000;" xml:space="preserve">
<style type="text/css">
	.st0{fill:url(#SVGID_1_);}
	.st1{fill:url(#SVGID_2_);}
	.st2{fill:url(#SVGID_3_);}
	.st3{fill:url(#SVGID_4_);}
	.st4{fill:url(#SVGID_5_);}
	.st5{fill:url(#SVGID_6_);}
	.st6{fill:url(#SVGID_7_);}
	.st7{fill:url(#SVGID_8_);}
	.st8{fill:url(#SVGID_9_);}
	.st9{fill:none;}
	.st10{fill:url(#SVGID_10_);}
	.st11{fill:url(#SVGID_11_);}
	.st12{fill:url(#SVGID_12_);}
	.st13{fill:#FFFFFF;}
</style>
<g>
	<linearGradient id="SVGID_1_" gradientUnits="userSpaceOnUse" x1="23.3968" y1="625.6985" x2="124.3947" y2="625.6985">
		<stop  offset="0" style="stop-color:#559DFF"/>
		<stop  offset="4.635438e-02" style="stop-color:#4E99FF"/>
		<stop  offset="0.1598" style="stop-color:#4393FF"/>
		<stop  offset="0.2809" style="stop-color:#3F91FF"/>
		<stop  offset="0.6685" style="stop-color:#2A6DFF"/>
		<stop  offset="0.8876" style="stop-color:#0046E9"/>
		<stop  offset="1" style="stop-color:#004FD4"/>
	</linearGradient>
	<path class="st0" d="M124.4,654.5c-2.4,3.9-5.3,7.4-8.6,10.5c-3.3,3.1-6.9,5.9-10.9,8.1c-4,2.3-8.2,4-12.8,5.3s-9.3,1.8-14.2,1.8
		c-7.5,0-14.6-1.4-21.3-4.3c-6.7-2.8-12.4-6.7-17.4-11.7c-4.9-4.9-8.8-10.7-11.7-17.4c-2.8-6.6-4.3-13.7-4.3-21.3
		c0-7.5,1.4-14.6,4.3-21.3c2.8-6.6,6.7-12.4,11.7-17.4c4.9-4.9,10.7-8.8,17.4-11.7c6.6-2.8,13.7-4.3,21.3-4.3
		c4.9,0,9.6,0.6,14.2,1.8c4.6,1.2,8.8,3,12.8,5.3s7.6,5,10.9,8.2c3.3,3.1,6.2,6.7,8.6,10.5l-17.8,11.4c-2.8-5.5-6.8-9.9-11.7-13.2
		c-5-3.3-10.6-5-16.9-5c-4.5,0-8.7,0.9-12.6,2.8c-4,1.9-7.4,4.4-10.4,7.6c-2.9,3.2-5.3,7-7,11.3c-1.7,4.3-2.6,8.9-2.6,13.8
		c0,4.9,0.9,9.5,2.6,13.8c1.7,4.3,4.1,8.1,7,11.3c2.9,3.2,6.4,5.7,10.4,7.6c4,1.9,8.2,2.8,12.6,2.8c6.3,0,11.9-1.6,16.9-5
		c5-3.3,8.9-7.7,11.7-13.2L124.4,654.5z"/>
	<linearGradient id="SVGID_2_" gradientUnits="userSpaceOnUse" x1="124.8514" y1="625.6993" x2="231.1815" y2="625.6993">
		<stop  offset="0" style="stop-color:#559DFF"/>
		<stop  offset="4.635438e-02" style="stop-color:#4E99FF"/>
		<stop  offset="0.1598" style="stop-color:#4393FF"/>
		<stop  offset="0.2809" style="stop-color:#3F91FF"/>
		<stop  offset="0.6685" style="stop-color:#2A6DFF"/>
		<stop  offset="0.8876" style="stop-color:#0046E9"/>
		<stop  offset="1" style="stop-color:#004FD4"/>
	</linearGradient>
	<path class="st1" d="M178,571c7.5,0,14.5,1.4,21,4.3c6.5,2.9,12.1,6.8,16.9,11.7c4.8,4.9,8.5,10.7,11.2,17.4c2.7,6.7,4,13.7,4,21.3
		c0,6.4-1,12.5-2.9,18.3c-1.9,5.8-4.7,11-8.2,15.7c-3.6,4.7-7.8,8.7-12.7,12c-4.9,3.3-10.3,5.7-16.2,7.1l-10.7-18.1
		c4.3-0.3,8.1-1.4,11.7-3.4c3.5-2,6.5-4.5,9.1-7.6c2.5-3.1,4.5-6.7,5.9-10.8c1.4-4.1,2.1-8.5,2.1-13c0-4.8-0.8-9.3-2.4-13.6
		c-1.6-4.3-3.7-8-6.5-11.1c-2.7-3.1-6-5.6-9.8-7.5c-3.8-1.8-8-2.7-12.6-2.7s-8.8,0.9-12.6,2.7c-3.8,1.8-7.1,4.3-9.9,7.5
		c-2.8,3.1-5,6.9-6.6,11.1c-1.6,4.3-2.4,8.8-2.4,13.6c0,4.8,0.8,9.3,2.4,13.6c1.6,4.3,3.8,8,6.6,11.1c2.8,3.1,6.1,5.6,9.9,7.5
		c3.8,1.8,8,2.7,12.6,2.7v19.8c-7.5,0-14.5-1.4-21-4.3c-6.5-2.8-12.1-6.8-16.9-11.7c-4.8-5-8.5-10.8-11.2-17.4
		c-2.7-6.6-4-13.7-4-21.3c0-7.5,1.3-14.6,4-21.3c2.7-6.6,6.4-12.4,11.2-17.4c4.8-4.9,10.4-8.8,16.9-11.7
		C163.5,572.5,170.5,571,178,571z"/>
	<linearGradient id="SVGID_3_" gradientUnits="userSpaceOnUse" x1="240.3185" y1="625.6985" x2="339.3353" y2="625.6985">
		<stop  offset="0" style="stop-color:#559DFF"/>
		<stop  offset="4.635438e-02" style="stop-color:#4E99FF"/>
		<stop  offset="0.1598" style="stop-color:#4393FF"/>
		<stop  offset="0.2809" style="stop-color:#3F91FF"/>
		<stop  offset="0.6685" style="stop-color:#2A6DFF"/>
		<stop  offset="0.8876" style="stop-color:#0046E9"/>
		<stop  offset="1" style="stop-color:#004FD4"/>
	</linearGradient>
	<path class="st2" d="M306.7,576.6c6.5,2.8,12.2,6.6,17,11.4c4.8,4.8,8.6,10.5,11.4,17c2.8,6.5,4.2,13.4,4.2,20.7
		c0,7.3-1.4,14.2-4.2,20.7c-2.8,6.5-6.6,12.2-11.4,17c-4.8,4.8-10.5,8.6-17,11.4c-6.5,2.8-13.4,4.2-20.7,4.2h-8.8l-10.1-18.6H286
		c4.4,0,8.5-0.9,12.4-2.6c3.9-1.7,7.3-4.1,10.2-7.2c2.9-3.1,5.2-6.8,6.9-11c1.7-4.3,2.5-8.9,2.5-13.9c0-4.9-0.8-9.4-2.5-13.7
		c-1.7-4.3-4-7.9-6.9-11c-2.9-3.1-6.3-5.5-10.2-7.3c-3.9-1.8-8-2.7-12.4-2.7h-24.4v88h-21.3V572.4H286
		C293.3,572.4,300.2,573.8,306.7,576.6z"/>
	<linearGradient id="SVGID_4_" gradientUnits="userSpaceOnUse" x1="348.4754" y1="625.6985" x2="420.0719" y2="625.6985">
		<stop  offset="0" style="stop-color:#559DFF"/>
		<stop  offset="4.635438e-02" style="stop-color:#4E99FF"/>
		<stop  offset="0.1598" style="stop-color:#4393FF"/>
		<stop  offset="0.2809" style="stop-color:#3F91FF"/>
		<stop  offset="0.6685" style="stop-color:#2A6DFF"/>
		<stop  offset="0.8876" style="stop-color:#0046E9"/>
		<stop  offset="1" style="stop-color:#004FD4"/>
	</linearGradient>
	<path class="st3" d="M419.9,572.4l0.2,17.8H370l-0.2,71.1h50.1V679h-71.4V572.4H419.9z M407.3,636.5h-23.8l-9.9-19.8h33.7V636.5z"
		/>
	<linearGradient id="SVGID_5_" gradientUnits="userSpaceOnUse" x1="459.5222" y1="625.6985" x2="543.002" y2="625.6985">
		<stop  offset="0" style="stop-color:#559DFF"/>
		<stop  offset="4.635438e-02" style="stop-color:#4E99FF"/>
		<stop  offset="0.1598" style="stop-color:#4393FF"/>
		<stop  offset="0.2809" style="stop-color:#3F91FF"/>
		<stop  offset="0.6685" style="stop-color:#2A6DFF"/>
		<stop  offset="0.8876" style="stop-color:#0046E9"/>
		<stop  offset="1" style="stop-color:#004FD4"/>
	</linearGradient>
	<path class="st4" d="M543,640.6v19.5h-14V679h-21.2v-18.9h-48.3v-19.3l34.3-68.4h23.5l-33.1,68.2H543z M507.8,618.1H529v20.4
		l-21.2-10.7V618.1z"/>
	<linearGradient id="SVGID_6_" gradientUnits="userSpaceOnUse" x1="578.7987" y1="625.6985" x2="663.4975" y2="625.6985">
		<stop  offset="0" style="stop-color:#559DFF"/>
		<stop  offset="4.635438e-02" style="stop-color:#4E99FF"/>
		<stop  offset="0.1598" style="stop-color:#4393FF"/>
		<stop  offset="0.2809" style="stop-color:#3F91FF"/>
		<stop  offset="0.6685" style="stop-color:#2A6DFF"/>
		<stop  offset="0.8876" style="stop-color:#0046E9"/>
		<stop  offset="1" style="stop-color:#004FD4"/>
	</linearGradient>
	<path class="st5" d="M632.1,572.4V679h-21.9v-88h-31.4v-18.6H632.1z M635.3,572.4h28.2V591h-18.9L635.3,572.4z"/>
	<linearGradient id="SVGID_7_" gradientUnits="userSpaceOnUse" x1="671.8738" y1="626.308" x2="763.8828" y2="626.308">
		<stop  offset="0" style="stop-color:#559DFF"/>
		<stop  offset="4.635438e-02" style="stop-color:#4E99FF"/>
		<stop  offset="0.1598" style="stop-color:#4393FF"/>
		<stop  offset="0.2809" style="stop-color:#3F91FF"/>
		<stop  offset="0.6685" style="stop-color:#2A6DFF"/>
		<stop  offset="0.8876" style="stop-color:#0046E9"/>
		<stop  offset="1" style="stop-color:#004FD4"/>
	</linearGradient>
	<path class="st6" d="M693.5,635c0,3.7,0.6,7.1,1.9,10.3c1.3,3.2,3,6,5.3,8.4c2.2,2.4,4.8,4.3,7.8,5.7c3,1.4,6.2,2.1,9.5,2.1v18.7
		c-6.4,0-12.4-1.2-18-3.6c-5.6-2.4-10.5-5.7-14.7-9.8c-4.2-4.2-7.5-9-9.9-14.6c-2.4-5.6-3.6-11.6-3.6-18v-61.8h21.6v61.8v0.3V635z
		 M763.9,572.4v61.8c0,5.4-0.9,10.5-2.7,15.3c-1.8,4.8-4.2,9.2-7.3,13.1c-3.1,3.9-6.8,7.3-11,10.1c-4.3,2.8-8.9,4.9-13.9,6.2
		l-9.4-17.5c3.1-0.2,6.1-1,8.8-2.5c2.7-1.5,5.2-3.4,7.2-5.8c2.1-2.4,3.7-5.1,4.9-8.2c1.2-3.1,1.8-6.4,1.8-9.8c0-0.1,0-0.2-0.1-0.2
		c-0.1,0-0.1-0.1-0.1-0.2c0-0.3,0-0.4,0.1-0.2c0,0.2,0.1,0,0.1-0.5c0-0.6,0-1.8,0-3.7c0-1.9,0-5.1,0-9.6c0-4.5,0-10.6,0-18.4
		c0-7.7,0-17.7,0-29.9H763.9z"/>
	<linearGradient id="SVGID_8_" gradientUnits="userSpaceOnUse" x1="773.7836" y1="625.6222" x2="865.3358" y2="625.6222">
		<stop  offset="0" style="stop-color:#559DFF"/>
		<stop  offset="4.635438e-02" style="stop-color:#4E99FF"/>
		<stop  offset="0.1598" style="stop-color:#4393FF"/>
		<stop  offset="0.2809" style="stop-color:#3F91FF"/>
		<stop  offset="0.6685" style="stop-color:#2A6DFF"/>
		<stop  offset="0.8876" style="stop-color:#0046E9"/>
		<stop  offset="1" style="stop-color:#004FD4"/>
	</linearGradient>
	<path class="st7" d="M852.5,621.6c3.9,2.8,7,6.5,9.3,10.9c2.3,4.4,3.5,9.2,3.5,14.4c0,4.5-0.8,8.6-2.5,12.5
		c-1.7,3.9-4,7.3-6.9,10.2s-6.3,5.3-10.2,6.9c-3.9,1.7-8.1,2.5-12.4,2.5H811l-9.9-18.6h32.6c1.4,0,2.8-0.4,4-1.1
		c1.3-0.8,2.4-1.7,3.3-2.8c0.9-1.1,1.6-2.4,2.2-3.8c0.6-1.4,0.8-2.8,0.8-4.3c0-1.5-0.3-3-0.8-4.5c-0.6-1.5-1.3-2.8-2.4-3.9
		c-1-1.1-2.2-2-3.4-2.7c-1.3-0.7-2.6-1.1-4-1.1h-38.2V679h-21.3V572.2h51.9c4.4,0,8.5,0.8,12.4,2.5c3.9,1.7,7.3,4,10.2,6.9
		c2.9,2.9,5.2,6.3,6.9,10.2c1.7,3.9,2.5,8,2.5,12.4c0,3.3-0.5,6.3-1.4,9.2C855.4,616.3,854.2,619,852.5,621.6z M825.7,615
		c1.4,0,2.8-0.3,4-1c1.3-0.7,2.4-1.5,3.4-2.6c1-1.1,1.8-2.3,2.4-3.8c0.6-1.5,0.8-3,0.8-4.6c0-1.6-0.3-3.2-0.8-4.6
		c-0.6-1.5-1.3-2.8-2.4-3.9c-1-1.1-2.2-2-3.4-2.7c-1.3-0.7-2.6-1-4-1h-30.6V615H825.7z"/>
	<linearGradient id="SVGID_9_" gradientUnits="userSpaceOnUse" x1="865.3358" y1="625.6985" x2="975.7778" y2="625.6985">
		<stop  offset="0" style="stop-color:#559DFF"/>
		<stop  offset="4.635438e-02" style="stop-color:#4E99FF"/>
		<stop  offset="0.1598" style="stop-color:#4393FF"/>
		<stop  offset="0.2809" style="stop-color:#3F91FF"/>
		<stop  offset="0.6685" style="stop-color:#2A6DFF"/>
		<stop  offset="0.8876" style="stop-color:#0046E9"/>
		<stop  offset="1" style="stop-color:#004FD4"/>
	</linearGradient>
	<path class="st8" d="M945,660.1h-48.7l-8.1,18.9h-22.9l43.7-106.6h23l-28.2,68.7h33.4l-15.1-36.6l17.2-14.8l36.4,89.3h-22.8
		L945,660.1z"/>
</g>
<g>
	<polygon class="st9" points="529.9,345.5 529.9,428.5 578.4,345.5 	"/>
	<linearGradient id="SVGID_10_" gradientUnits="userSpaceOnUse" x1="529.8629" y1="430.9804" x2="676.2911" y2="430.9804">
		<stop  offset="0" style="stop-color:#559DFF"/>
		<stop  offset="4.635438e-02" style="stop-color:#4E99FF"/>
		<stop  offset="0.1598" style="stop-color:#4393FF"/>
		<stop  offset="0.2809" style="stop-color:#3F91FF"/>
		<stop  offset="0.6685" style="stop-color:#2A6DFF"/>
		<stop  offset="0.8876" style="stop-color:#0046E9"/>
		<stop  offset="1" style="stop-color:#004FD4"/>
	</linearGradient>
	<path class="st10" d="M628.1,345.5h-46.6c-2,0-3.8,1-4.7,2.7l-46.2,79c-0.5,0.8-0.7,1.8-0.7,2.8v4.9V511c0,3,2.5,5.5,5.5,5.5h87.2
		c3,0,5.5-2.5,5.5-5.5v-70.6c0-3,2.5-5.5,5.5-5.5h37.3c3,0,5.5-2.5,5.5-5.5V351c0-3-2.5-5.5-5.5-5.5H628.1z"/>
	<linearGradient id="SVGID_11_" gradientUnits="userSpaceOnUse" x1="453.0753" y1="343.8221" x2="624.7456" y2="343.8221">
		<stop  offset="0" style="stop-color:#559DFF"/>
		<stop  offset="4.635438e-02" style="stop-color:#4E99FF"/>
		<stop  offset="0.1598" style="stop-color:#4393FF"/>
		<stop  offset="0.2809" style="stop-color:#3F91FF"/>
		<stop  offset="0.6685" style="stop-color:#2A6DFF"/>
		<stop  offset="0.8876" style="stop-color:#0046E9"/>
		<stop  offset="1" style="stop-color:#004FD4"/>
	</linearGradient>
	<path class="st11" d="M529.9,423V351c0-3,2.5-5.5,5.5-5.5h39.9c2,0,3.8-1,4.7-2.7l44-75.4c2.1-3.7-0.5-8.3-4.7-8.3h-89
		c-2,0-3.8,1-4.7,2.7l-71.7,122.7c-1,1.7-1,3.9,0,5.6l21.2,35.7c1,1.7,2.8,2.7,4.7,2.7h44.6C527.4,428.5,529.9,426.1,529.9,423z"/>
	<linearGradient id="SVGID_12_" gradientUnits="userSpaceOnUse" x1="339.3353" y1="386.8139" x2="509.9105" y2="386.8139">
		<stop  offset="0" style="stop-color:#559DFF"/>
		<stop  offset="4.635438e-02" style="stop-color:#4E99FF"/>
		<stop  offset="0.1598" style="stop-color:#4393FF"/>
		<stop  offset="0.2809" style="stop-color:#3F91FF"/>
		<stop  offset="0.6685" style="stop-color:#2A6DFF"/>
		<stop  offset="0.8876" style="stop-color:#0046E9"/>
		<stop  offset="1" style="stop-color:#004FD4"/>
	</linearGradient>
	<path class="st12" d="M441.8,384.1l67.4-116.7c2.1-3.7-0.5-8.2-4.8-8.2h-89c-2,0-3.8,1-4.8,2.7l-70.6,122.2c-1,1.7-1,3.8,0,5.5
		l70.6,122.2c1,1.7,2.8,2.7,4.8,2.7h89c4.2,0,6.9-4.6,4.8-8.2l-67.4-116.7C440.8,387.9,440.8,385.8,441.8,384.1z"/>
	<polygon class="st13" points="466.2,431.9 468.3,435.6 468.4,435.6 466.2,431.9 	"/>
	<polygon class="st13" points="446.3,397.4 446.3,397.4 440.5,387.4 440.5,387.4 	"/>
	<polygon class="st13" points="466.2,431.9 466.2,431.9 446.3,397.4 446.3,397.4 	"/>
</g>
</svg>
