<svg xmlns="http://www.w3.org/2000/svg" xmlns:xlink="http://www.w3.org/1999/xlink" viewBox="0 0 952.5 421.5"><defs><style>.cls-1{fill:url(#Gradiente_sem_nome_12);}.cls-2{fill:url(#Gradiente_sem_nome_12-2);}.cls-3{fill:url(#Gradiente_sem_nome_12-3);}.cls-4{fill:url(#Gradiente_sem_nome_12-4);}.cls-5{fill:url(#Gradiente_sem_nome_12-5);}.cls-6{fill:url(#Gradiente_sem_nome_12-6);}.cls-7{fill:url(#Gradiente_sem_nome_12-7);}.cls-8{fill:url(#Gradiente_sem_nome_12-8);}.cls-9{fill:url(#Gradiente_sem_nome_12-9);}.cls-10{fill:none;}.cls-11{fill:url(#Gradiente_sem_nome_12-10);}.cls-12{fill:url(#Gradiente_sem_nome_12-11);}.cls-13{fill:url(#Gradiente_sem_nome_12-12);}.cls-14{fill:#fff;}</style><linearGradient id="Gradiente_sem_nome_12" x1="0.2" y1="115.4" x2="101.19" y2="115.4" gradientTransform="matrix(1, 0, 0, -1, 0, 481.8)" gradientUnits="userSpaceOnUse"><stop offset="0" stop-color="#559dff"/><stop offset="0.05" stop-color="#4e99ff"/><stop offset="0.16" stop-color="#4393ff"/><stop offset="0.28" stop-color="#3f91ff"/><stop offset="0.67" stop-color="#2a6dff"/><stop offset="0.89" stop-color="#0046e9"/><stop offset="1" stop-color="#004fd4"/></linearGradient><linearGradient id="Gradiente_sem_nome_12-2" x1="101.6" y1="115.1" x2="207.9" y2="115.1" xlink:href="#Gradiente_sem_nome_12"/><linearGradient id="Gradiente_sem_nome_12-3" x1="217.1" y1="115.2" x2="316.1" y2="115.2" xlink:href="#Gradiente_sem_nome_12"/><linearGradient id="Gradiente_sem_nome_12-4" x1="325.3" y1="115.2" x2="396.9" y2="115.2" xlink:href="#Gradiente_sem_nome_12"/><linearGradient id="Gradiente_sem_nome_12-5" x1="436.3" y1="115.2" x2="519.8" y2="115.2" xlink:href="#Gradiente_sem_nome_12"/><linearGradient id="Gradiente_sem_nome_12-6" x1="555.6" y1="115.2" x2="640.3" y2="115.2" xlink:href="#Gradiente_sem_nome_12"/><linearGradient id="Gradiente_sem_nome_12-7" x1="648.6" y1="114.6" x2="740.7" y2="114.6" xlink:href="#Gradiente_sem_nome_12"/><linearGradient id="Gradiente_sem_nome_12-8" x1="750.58" y1="115.3" x2="842.14" y2="115.3" xlink:href="#Gradiente_sem_nome_12"/><linearGradient id="Gradiente_sem_nome_12-9" x1="842.1" y1="115.2" x2="952.5" y2="115.2" xlink:href="#Gradiente_sem_nome_12"/><linearGradient id="Gradiente_sem_nome_12-10" x1="506.7" y1="309.9" x2="653.2" y2="309.9" xlink:href="#Gradiente_sem_nome_12"/><linearGradient id="Gradiente_sem_nome_12-11" x1="429.95" y1="397.1" x2="601.54" y2="397.1" xlink:href="#Gradiente_sem_nome_12"/><linearGradient id="Gradiente_sem_nome_12-12" x1="316.05" y1="354.05" x2="486.74" y2="354.05" xlink:href="#Gradiente_sem_nome_12"/></defs><title>c4t4Ativo 1</title><g id="Camada_2" data-name="Camada 2"><g id="Camada_1-2" data-name="Camada 1"><path class="cls-1" d="M101.2,395.4a51.26,51.26,0,0,1-8.6,10.5A54.14,54.14,0,0,1,81.7,414a55.68,55.68,0,0,1-12.8,5.3,51.7,51.7,0,0,1-14.2,1.8,54.71,54.71,0,0,1-38.7-16A55.5,55.5,0,0,1,4.3,387.7,54,54,0,0,1,0,366.4a53,53,0,0,1,4.3-21.3A54.42,54.42,0,0,1,16,327.7,55.5,55.5,0,0,1,33.4,316a54,54,0,0,1,21.3-4.3,55.83,55.83,0,0,1,14.2,1.8,51.58,51.58,0,0,1,12.8,5.3A54.61,54.61,0,0,1,92.6,327a54.08,54.08,0,0,1,8.6,10.5L83.4,348.9a34.78,34.78,0,0,0-11.7-13.2,30,30,0,0,0-16.9-5,28.35,28.35,0,0,0-12.6,2.8,34,34,0,0,0-10.4,7.6,37.53,37.53,0,0,0,0,50.2,32.88,32.88,0,0,0,10.4,7.6,29,29,0,0,0,12.6,2.8,29.21,29.21,0,0,0,16.9-5,34,34,0,0,0,11.7-13.2Z"/><path class="cls-2" d="M154.8,311.9a50.92,50.92,0,0,1,21,4.3,54.4,54.4,0,0,1,16.9,11.7,52.6,52.6,0,0,1,11.2,17.4,56,56,0,0,1,4,21.3,58.43,58.43,0,0,1-2.9,18.3,54.61,54.61,0,0,1-8.2,15.7,53.63,53.63,0,0,1-12.7,12,49.09,49.09,0,0,1-16.2,7.1l-10.7-18.1a27.41,27.41,0,0,0,11.7-3.4,33.24,33.24,0,0,0,9.1-7.6,35.2,35.2,0,0,0,5.9-10.8,40.25,40.25,0,0,0,2.1-13,38.55,38.55,0,0,0-2.4-13.6,33.88,33.88,0,0,0-6.5-11.1,31.61,31.61,0,0,0-9.8-7.5,30.75,30.75,0,0,0-25.2,0,30.22,30.22,0,0,0-9.9,7.5,35.17,35.17,0,0,0-6.6,11.1,39.73,39.73,0,0,0,0,27.2,34.09,34.09,0,0,0,6.6,11.1,33.25,33.25,0,0,0,9.9,7.5,29.06,29.06,0,0,0,12.6,2.7v19.8a50.92,50.92,0,0,1-21-4.3,52.77,52.77,0,0,1-16.9-11.7,54.72,54.72,0,0,1-11.2-17.4,55.68,55.68,0,0,1-4-21.3,56.41,56.41,0,0,1,4-21.3,52.77,52.77,0,0,1,28.1-29.1,50.28,50.28,0,0,1,21.1-4.5Z"/><path class="cls-3" d="M283.5,317.5a52.9,52.9,0,0,1,28.4,28.4,53.11,53.11,0,0,1,0,41.4,52.9,52.9,0,0,1-28.4,28.4,51.76,51.76,0,0,1-20.7,4.2H254l-10.1-18.6h18.9a31,31,0,0,0,22.6-9.8,35.39,35.39,0,0,0,6.9-11,37.32,37.32,0,0,0,2.5-13.9,36.64,36.64,0,0,0-2.5-13.7,34.27,34.27,0,0,0-6.9-11,32.3,32.3,0,0,0-10.2-7.3,29.13,29.13,0,0,0-12.4-2.7H238.4v88H217.1V313.3h45.7a51.76,51.76,0,0,1,20.7,4.2Z"/><path class="cls-4" d="M396.7,313.3l.2,17.8H346.8l-.2,71.1h50.1v17.7H325.3V313.3Zm-12.6,64.1H360.3l-9.9-19.8h33.7Z"/><path class="cls-5" d="M519.8,381.5V401h-14v18.9H484.6V401H436.3V381.7l34.3-68.4h23.5L461,381.5ZM484.6,359h21.2v20.4l-21.2-10.7Z"/><path class="cls-6" d="M608.9,313.3V419.9H587v-88H555.6V313.3Zm3.2,0h28.2v18.6H621.4Z"/><path class="cls-7" d="M670.3,375.9a27,27,0,0,0,1.9,10.3,26.08,26.08,0,0,0,5.3,8.4,24.56,24.56,0,0,0,7.8,5.7,22.31,22.31,0,0,0,9.5,2.1v18.7a45.21,45.21,0,0,1-18-3.6,47.89,47.89,0,0,1-14.7-9.8,46,46,0,0,1-9.9-14.6,45.21,45.21,0,0,1-3.6-18V313.3h21.6v62.6Zm70.4-62.6v61.8a43.21,43.21,0,0,1-2.7,15.3,47,47,0,0,1-18.3,23.2,47,47,0,0,1-13.9,6.2l-9.4-17.5a20.77,20.77,0,0,0,8.8-2.5,25.21,25.21,0,0,0,7.2-5.8,27.48,27.48,0,0,0,6.7-18c0-.1,0-.2-.1-.2s-.1-.1-.1-.2c0-.3,0-.4.1-.2s.1,0,.1-.5V313.3Z"/><path class="cls-8" d="M829.3,362.5a31.71,31.71,0,0,1,10.3,37.8,32.81,32.81,0,0,1-6.9,10.2,31.74,31.74,0,0,1-22.6,9.4H787.8l-9.9-18.6h32.6a8,8,0,0,0,4-1.1,12.89,12.89,0,0,0,3.3-2.8,15.75,15.75,0,0,0,2.2-3.8,10.6,10.6,0,0,0,.8-4.3,14.23,14.23,0,0,0-.8-4.5,11.12,11.12,0,0,0-2.4-3.9,14.44,14.44,0,0,0-3.4-2.7,8.31,8.31,0,0,0-4-1.1H772v42.8H750.7V313.1h51.9a30.54,30.54,0,0,1,12.4,2.5,32.5,32.5,0,0,1,17.1,17.1,31.54,31.54,0,0,1,1.1,21.6,36.26,36.26,0,0,1-3.9,8.2Zm-26.8-6.6a7.92,7.92,0,0,0,4-1,12.44,12.44,0,0,0,5.8-6.4,12.06,12.06,0,0,0,.8-4.6,13.89,13.89,0,0,0-.8-4.6,11.12,11.12,0,0,0-2.4-3.9,14.44,14.44,0,0,0-3.4-2.7,8.19,8.19,0,0,0-4-1H771.9v24.2Z"/><path class="cls-9" d="M921.8,401H873.1L865,419.9H842.1l43.7-106.6h23L880.6,382H914l-15.1-36.6,17.2-14.8,36.4,89.3H929.7Z"/><path class="cls-10" d="M506.7,86.4v83l48.5-83Z"/><path class="cls-11" d="M604.9,86.4H558.3a5.22,5.22,0,0,0-4.7,2.7l-46.2,79a5.3,5.3,0,0,0-.7,2.8v81a5.55,5.55,0,0,0,5.5,5.5h87.2a5.55,5.55,0,0,0,5.5-5.5V181.3a5.55,5.55,0,0,1,5.5-5.5h37.3a5.55,5.55,0,0,0,5.5-5.5V91.9a5.55,5.55,0,0,0-5.5-5.5Z"/><path class="cls-12" d="M506.7,163.9v-72a5.55,5.55,0,0,1,5.5-5.5h39.9a5.22,5.22,0,0,0,4.7-2.7l44-75.4A5.52,5.52,0,0,0,596.1,0h-89a5.22,5.22,0,0,0-4.7,2.7L430.7,125.4a5.6,5.6,0,0,0,0,5.6l21.2,35.7a5.45,5.45,0,0,0,4.7,2.7h44.6a5.48,5.48,0,0,0,5.5-5.5Z"/><path class="cls-13" d="M418.6,125,486,8.3A5.46,5.46,0,0,0,481.2.1h-89a5.5,5.5,0,0,0-4.8,2.7L316.8,125a5.42,5.42,0,0,0,0,5.5l70.6,122.2a5.5,5.5,0,0,0,4.8,2.7h89a5.51,5.51,0,0,0,4.8-8.2L418.6,130.5a5.42,5.42,0,0,1,0-5.5Z"/><path class="cls-14" d="M443,172.8l2.1,3.7h.1Z"/><path class="cls-14" d="M423.1,138.3l-5.8-10Z"/><path class="cls-14" d="M443,172.8l-19.9-34.5Z"/></g></g></svg>