<svg xmlns="http://www.w3.org/2000/svg" xmlns:xlink="http://www.w3.org/1999/xlink" viewBox="0 0 572.17 437.1"><defs><style>.cls-1{fill:none;}.cls-2{fill:url(#Gradiente_sem_nome_3);}.cls-3{fill:url(#Gradiente_sem_nome_3-2);}.cls-4{fill:url(#Gradiente_sem_nome_3-3);}.cls-5{fill:#fff;}</style><linearGradient id="Gradiente_sem_nome_3" x1="323.57" y1="72.5" x2="572.17" y2="72.5" gradientTransform="matrix(1, 0, 0, -1, 0, 364.4)" gradientUnits="userSpaceOnUse"><stop offset="0" stop-color="#559dff"/><stop offset="0.05" stop-color="#4e99ff"/><stop offset="0.16" stop-color="#4393ff"/><stop offset="0.28" stop-color="#3f91ff"/><stop offset="0.67" stop-color="#2a6dff"/><stop offset="0.89" stop-color="#0046e9"/><stop offset="1" stop-color="#004fd4"/></linearGradient><linearGradient id="Gradiente_sem_nome_3-2" x1="193.2" y1="220.5" x2="484.64" y2="220.5" xlink:href="#Gradiente_sem_nome_3"/><linearGradient id="Gradiente_sem_nome_3-3" x1="0" y1="147.55" x2="289.74" y2="147.55" xlink:href="#Gradiente_sem_nome_3"/></defs><title>c4t3Ativo 1</title><g id="Camada_2" data-name="Camada 2"><g id="Camada_1-2" data-name="Camada 1"><path class="cls-1" d="M323.57,146.7v141l82.4-141Z"/><path class="cls-2" d="M490.37,146.7h-79.1a9.28,9.28,0,0,0-8,4.6l-78.4,134.2a9.47,9.47,0,0,0-1.3,4.7V427.8a9.35,9.35,0,0,0,9.3,9.3H481a9.35,9.35,0,0,0,9.3-9.3V307.9a9.35,9.35,0,0,1,9.3-9.3h63.3a9.35,9.35,0,0,0,9.3-9.3V156a9.35,9.35,0,0,0-9.3-9.3Z"/><path class="cls-3" d="M323.57,278.3V156a9.35,9.35,0,0,1,9.3-9.3h67.7a9.28,9.28,0,0,0,8-4.6l74.8-128a9.33,9.33,0,0,0-8-14H324.27a9.28,9.28,0,0,0-8,4.6L194.47,213a9.49,9.49,0,0,0,0,9.5l36.1,60.6a9.41,9.41,0,0,0,8,4.6h75.7a9.37,9.37,0,0,0,9.3-9.4Z"/><path class="cls-4" d="M174,212.2,288.38,14a9.34,9.34,0,0,0-8.1-14H129.18a9.45,9.45,0,0,0-8.1,4.7L1.27,212.2a9.12,9.12,0,0,0,0,9.3L121.08,429a9.33,9.33,0,0,0,8.1,4.7h151.2a9.34,9.34,0,0,0,8.1-14L174,221.5A9.61,9.61,0,0,1,174,212.2Z"/><path class="cls-5" d="M215.47,293.3l3.6,6.4h.1Z"/><path class="cls-5" d="M181.67,234.9v-.1l-9.8-17Z"/><path class="cls-5" d="M215.47,293.3l-33.8-58.5v.1Z"/></g></g></svg>