<svg xmlns="http://www.w3.org/2000/svg" xmlns:xlink="http://www.w3.org/1999/xlink" viewBox="0 0 948.57 139.3"><defs><style>.cls-1{fill:url(#Gradiente_sem_nome_12);}.cls-2{fill:url(#Gradiente_sem_nome_12-2);}.cls-3{fill:url(#Gradiente_sem_nome_12-3);}.cls-4{fill:url(#Gradiente_sem_nome_12-4);}.cls-5{fill:url(#Gradiente_sem_nome_12-5);}.cls-6{fill:url(#Gradiente_sem_nome_12-6);}.cls-7{fill:url(#Gradiente_sem_nome_12-7);}.cls-8{fill:url(#Gradiente_sem_nome_12-8);}.cls-9{fill:url(#Gradiente_sem_nome_12-9);}.cls-10{fill:none;}.cls-11{fill:url(#Gradiente_sem_nome_12-10);}.cls-12{fill:url(#Gradiente_sem_nome_12-11);}.cls-13{fill:url(#Gradiente_sem_nome_12-12);}.cls-14{fill:#fff;}</style><linearGradient id="Gradiente_sem_nome_12" x1="199.83" y1="68.8" x2="279.24" y2="68.8" gradientTransform="matrix(1, 0, 0, -1, 0, 139.6)" gradientUnits="userSpaceOnUse"><stop offset="0" stop-color="#559dff"/><stop offset="0.05" stop-color="#4e99ff"/><stop offset="0.16" stop-color="#4393ff"/><stop offset="0.28" stop-color="#3f91ff"/><stop offset="0.67" stop-color="#2a6dff"/><stop offset="0.89" stop-color="#0046e9"/><stop offset="1" stop-color="#004fd4"/></linearGradient><linearGradient id="Gradiente_sem_nome_12-2" x1="279.6" y1="68.65" x2="363.21" y2="68.65" xlink:href="#Gradiente_sem_nome_12"/><linearGradient id="Gradiente_sem_nome_12-3" x1="370.38" y1="68.55" x2="448.27" y2="68.55" xlink:href="#Gradiente_sem_nome_12"/><linearGradient id="Gradiente_sem_nome_12-4" x1="455.47" y1="68.7" x2="511.77" y2="68.7" xlink:href="#Gradiente_sem_nome_12"/><linearGradient id="Gradiente_sem_nome_12-5" x1="542.78" y1="68.65" x2="608.38" y2="68.65" xlink:href="#Gradiente_sem_nome_12"/><linearGradient id="Gradiente_sem_nome_12-6" x1="636.57" y1="68.7" x2="703.18" y2="68.7" xlink:href="#Gradiente_sem_nome_12"/><linearGradient id="Gradiente_sem_nome_12-7" x1="709.68" y1="68.25" x2="782.08" y2="68.25" xlink:href="#Gradiente_sem_nome_12"/><linearGradient id="Gradiente_sem_nome_12-8" x1="789.84" y1="68.8" x2="861.83" y2="68.8" xlink:href="#Gradiente_sem_nome_12"/><linearGradient id="Gradiente_sem_nome_12-9" x1="861.88" y1="68.6" x2="948.71" y2="68.6" xlink:href="#Gradiente_sem_nome_12"/><linearGradient id="Gradiente_sem_nome_12-10" x1="102.97" y1="46.55" x2="182.05" y2="46.55" xlink:href="#Gradiente_sem_nome_12"/><linearGradient id="Gradiente_sem_nome_12-11" x1="61.5" y1="93.85" x2="154.2" y2="93.85" xlink:href="#Gradiente_sem_nome_12"/><linearGradient id="Gradiente_sem_nome_12-12" x1="0" y1="70.4" x2="92.16" y2="70.4" xlink:href="#Gradiente_sem_nome_12"/></defs><title>c4tAtivo 1</title><g id="Camada_2" data-name="Camada 2"><g id="Camada_1-2" data-name="Camada 1"><path class="cls-1" d="M279.27,93.6a44.87,44.87,0,0,1-6.8,8.3,41.82,41.82,0,0,1-8.6,6.4,38.94,38.94,0,0,1-10.1,4.1,43.47,43.47,0,0,1-27.8-2,42.9,42.9,0,0,1-13.7-9.2,43.44,43.44,0,0,1-9.2-13.7,42.6,42.6,0,0,1-3.4-16.7,40.9,40.9,0,0,1,3.4-16.7,42.9,42.9,0,0,1,9.2-13.7A43.44,43.44,0,0,1,226,31.2a42.6,42.6,0,0,1,16.7-3.4,45.62,45.62,0,0,1,11.1,1.4,42.65,42.65,0,0,1,18.7,10.5,41.81,41.81,0,0,1,6.8,8.3l-14,9a27.23,27.23,0,0,0-9.2-10.4,23.35,23.35,0,0,0-13.3-3.9,22.39,22.39,0,0,0-9.9,2.2,26.71,26.71,0,0,0-8.1,6,29.11,29.11,0,0,0-7.5,19.7,30,30,0,0,0,2,10.8,31,31,0,0,0,5.5,8.9,26.71,26.71,0,0,0,8.1,6,22.39,22.39,0,0,0,9.9,2.2,23.35,23.35,0,0,0,13.3-3.9,26.52,26.52,0,0,0,9.2-10.4Z"/><path class="cls-2" d="M321.37,27.9a39.63,39.63,0,0,1,16.5,3.4,42.8,42.8,0,0,1,13.3,9.2A40.81,40.81,0,0,1,360,54.2a44.33,44.33,0,0,1,3.2,16.7,46.19,46.19,0,0,1-2.3,14.4,40.2,40.2,0,0,1-6.5,12.3,40.67,40.67,0,0,1-10,9.4,38.7,38.7,0,0,1-12.8,5.6l-8.4-14.3a20.54,20.54,0,0,0,9.2-2.7,25.76,25.76,0,0,0,7.1-6,27,27,0,0,0,4.7-8.5,31.18,31.18,0,0,0,1.7-10.2A29.41,29.41,0,0,0,344,60.2a25,25,0,0,0-5.1-8.7,24.74,24.74,0,0,0-7.7-5.9,23.18,23.18,0,0,0-9.9-2.2,21.79,21.79,0,0,0-9.9,2.2,23.7,23.7,0,0,0-7.8,5.9,29.16,29.16,0,0,0-5.2,8.7,31.69,31.69,0,0,0-1.9,10.7,29.41,29.41,0,0,0,1.9,10.7,26.06,26.06,0,0,0,13,14.6,23.17,23.17,0,0,0,9.9,2.2V114a39.63,39.63,0,0,1-16.5-3.4,41.18,41.18,0,0,1-13.3-9.2,41.83,41.83,0,0,1-8.8-13.7,45.18,45.18,0,0,1,0-33.4,43.52,43.52,0,0,1,8.8-13.7,42.8,42.8,0,0,1,13.3-9.2,40.5,40.5,0,0,1,16.6-3.5Z"/><path class="cls-3" d="M422.57,32.3a42.69,42.69,0,0,1,13.4,9,41.58,41.58,0,0,1,9,13.4,41.91,41.91,0,0,1,0,32.6,42.69,42.69,0,0,1-9,13.4,41.57,41.57,0,0,1-13.4,9,40.59,40.59,0,0,1-16.3,3.3h-6.9l-7.9-14.6h14.9a23.9,23.9,0,0,0,17.8-7.7,25.63,25.63,0,0,0,5.4-8.7,30.43,30.43,0,0,0,0-21.7,26.09,26.09,0,0,0-13.4-14.5,23.32,23.32,0,0,0-9.8-2.1h-19.2v69.2h-16.8V29.1h35.9a38.9,38.9,0,0,1,16.3,3.2Z"/><path class="cls-4" d="M511.57,29l.1,14h-39.4l-.1,55.9h39.4v13.9h-56.1V29Zm-9.9,50.4H483l-7.8-15.6h26.5Z"/><path class="cls-5" d="M608.38,82.7V98h-11v14.9h-16.6V98h-38V82.8l27-53.8h18.4l-26,53.7ZM580.68,65h16.6V81l-16.6-8.4Z"/><path class="cls-6" d="M678.47,29v83.8h-17.2V43.6h-24.7V29Zm2.5,0h22.2V43.6h-14.9Z"/><path class="cls-7" d="M726.68,78.3a21.61,21.61,0,0,0,1.5,8.1,22.25,22.25,0,0,0,4.1,6.6,19.75,19.75,0,0,0,6.2,4.5,17.86,17.86,0,0,0,7.5,1.7v14.6a35.15,35.15,0,0,1-14.1-2.8,39.8,39.8,0,0,1-11.6-7.7,36.57,36.57,0,0,1-7.8-11.5,35.15,35.15,0,0,1-2.8-14.1V29.1h17V78.3ZM782.08,29V77.6a34.43,34.43,0,0,1-2.1,12,36,36,0,0,1-5.8,10.3,34.64,34.64,0,0,1-8.7,7.9,39.63,39.63,0,0,1-10.9,4.9l-7.4-13.8a16.25,16.25,0,0,0,6.9-2,19.58,19.58,0,0,0,5.7-4.6,21,21,0,0,0,3.8-6.5,21.91,21.91,0,0,0,1.4-7.7c0-.1,0-.1-.1-.2a.35.35,0,0,1-.1-.2c0-.2,0-.3.1-.1s.1,0,.1-.4V28.9h17.1Z"/><path class="cls-8" d="M851.77,67.7a24.76,24.76,0,0,1,8.1,29.7,25.34,25.34,0,0,1-13.4,13.4,24.88,24.88,0,0,1-9.8,2h-17.6l-7.8-14.6h25.6a6.2,6.2,0,0,0,3.2-.9,9.22,9.22,0,0,0,2.6-2.2,11.09,11.09,0,0,0,1.7-3,9.83,9.83,0,0,0,.7-3.4,8.42,8.42,0,0,0-.7-3.5,8.94,8.94,0,0,0-1.9-3.1,11.33,11.33,0,0,0-2.7-2.2,6.09,6.09,0,0,0-3.2-.8h-30.1v33.7h-16.8v-84h40.8a25.25,25.25,0,0,1,9.8,2,24.57,24.57,0,0,1,8,5.4,25.67,25.67,0,0,1,5.4,8,24.88,24.88,0,0,1,2,9.8,23.63,23.63,0,0,1-1.1,7.2A18.86,18.86,0,0,1,851.77,67.7Zm-21.1-5.1a7.22,7.22,0,0,0,3.2-.8,10.52,10.52,0,0,0,2.7-2,9.07,9.07,0,0,0,1.9-3,11.56,11.56,0,0,0,.7-3.7,9.37,9.37,0,0,0-.7-3.7,9.86,9.86,0,0,0-4.6-5.2,7.22,7.22,0,0,0-3.2-.8h-24.1v19h24.1Z"/><path class="cls-9" d="M924.47,98h-38.3l-6.3,14.9h-18l34.4-83.8h18.1l-22.2,54h26.2l-11.9-28.8L920,42.7l28.6,70.2h-18Z"/><path class="cls-10" d="M103,46.8V91.6l26.1-44.8Z"/><path class="cls-11" d="M156,46.8h-25.1a3.11,3.11,0,0,0-2.6,1.5L103.37,91a2.82,2.82,0,0,0-.4,1.5v43.8a3,3,0,0,0,3,3h47.1a3,3,0,0,0,3-3V98.2a3,3,0,0,1,3-3h20.1a3,3,0,0,0,3-3V49.8a3,3,0,0,0-3-3Z"/><path class="cls-12" d="M103,88.6V49.7a3,3,0,0,1,3-3h21.5a3.11,3.11,0,0,0,2.6-1.5l23.8-40.7a3,3,0,0,0-2.6-4.5h-48.1a3.11,3.11,0,0,0-2.6,1.5L61.88,67.8a3.19,3.19,0,0,0,0,3l11.5,19.3a2.85,2.85,0,0,0,2.5,1.4H100A2.86,2.86,0,0,0,103,88.6Z"/><path class="cls-13" d="M55.37,67.6l36.4-63A3,3,0,0,0,89.17.2H41.07a3.11,3.11,0,0,0-2.6,1.5L.38,67.7a3.19,3.19,0,0,0,0,3l38.1,66a3,3,0,0,0,2.6,1.5h48.1a3,3,0,0,0,2.6-4.4l-36.4-63A3.59,3.59,0,0,1,55.37,67.6Z"/><path class="cls-14" d="M68.57,93.4l1.1,2Z"/><path class="cls-14" d="M57.77,74.8l-3.1-5.4Z"/><path class="cls-14" d="M68.57,93.4,57.77,74.8Z"/></g></g></svg>