<svg xmlns="http://www.w3.org/2000/svg" xmlns:xlink="http://www.w3.org/1999/xlink" viewBox="0 0 952.5 109.9"><defs><style>.cls-1{fill:url(#Gradiente_sem_nome_9);}.cls-2{fill:url(#Gradiente_sem_nome_9-2);}.cls-3{fill:url(#Gradiente_sem_nome_9-3);}.cls-4{fill:url(#Gradiente_sem_nome_9-4);}.cls-5{fill:url(#Gradiente_sem_nome_9-5);}.cls-6{fill:url(#Gradiente_sem_nome_9-6);}.cls-7{fill:url(#Gradiente_sem_nome_9-7);}.cls-8{fill:url(#Gradiente_sem_nome_9-8);}.cls-9{fill:url(#Gradiente_sem_nome_9-9);}</style><linearGradient id="Gradiente_sem_nome_9" x1="0.21" y1="76.3" x2="101.21" y2="76.3" gradientTransform="matrix(1, 0, 0, -1, 0, 131)" gradientUnits="userSpaceOnUse"><stop offset="0" stop-color="#559dff"/><stop offset="0.05" stop-color="#4e99ff"/><stop offset="0.16" stop-color="#4393ff"/><stop offset="0.28" stop-color="#3f91ff"/><stop offset="0.67" stop-color="#2a6dff"/><stop offset="0.89" stop-color="#0046e9"/><stop offset="1" stop-color="#004fd4"/></linearGradient><linearGradient id="Gradiente_sem_nome_9-2" x1="101.6" y1="75.9" x2="207.9" y2="75.9" xlink:href="#Gradiente_sem_nome_9"/><linearGradient id="Gradiente_sem_nome_9-3" x1="217.1" y1="76.1" x2="316.1" y2="76.1" xlink:href="#Gradiente_sem_nome_9"/><linearGradient id="Gradiente_sem_nome_9-4" x1="325.3" y1="76.1" x2="396.9" y2="76.1" xlink:href="#Gradiente_sem_nome_9"/><linearGradient id="Gradiente_sem_nome_9-5" x1="436.3" y1="76" x2="519.8" y2="76" xlink:href="#Gradiente_sem_nome_9"/><linearGradient id="Gradiente_sem_nome_9-6" x1="555.6" y1="76.1" x2="640.3" y2="76.1" xlink:href="#Gradiente_sem_nome_9"/><linearGradient id="Gradiente_sem_nome_9-7" x1="648.6" y1="75.45" x2="740.7" y2="75.45" xlink:href="#Gradiente_sem_nome_9"/><linearGradient id="Gradiente_sem_nome_9-8" x1="750.6" y1="76.15" x2="842.1" y2="76.15" xlink:href="#Gradiente_sem_nome_9"/><linearGradient id="Gradiente_sem_nome_9-9" x1="842.1" y1="76" x2="952.5" y2="76" xlink:href="#Gradiente_sem_nome_9"/></defs><title>c4t2Ativo 1</title><g id="Camada_2" data-name="Camada 2"><g id="Camada_1-2" data-name="Camada 1"><path class="cls-1" d="M101.2,83.7a51.26,51.26,0,0,1-8.6,10.5,54.14,54.14,0,0,1-10.9,8.1,60.49,60.49,0,0,1-12.8,5.3,55.83,55.83,0,0,1-14.2,1.8A54.71,54.71,0,0,1,16,93.4,55.5,55.5,0,0,1,4.3,76,54,54,0,0,1,0,54.7,52.66,52.66,0,0,1,4.3,33.4,54.42,54.42,0,0,1,16,16,55.5,55.5,0,0,1,33.4,4.3,54,54,0,0,1,54.7,0,55.83,55.83,0,0,1,68.9,1.8,51.58,51.58,0,0,1,81.7,7.1a54.61,54.61,0,0,1,10.9,8.2,54.09,54.09,0,0,1,8.6,10.5L83.4,37.6A34.78,34.78,0,0,0,71.7,24.4a30,30,0,0,0-16.9-5,28.35,28.35,0,0,0-12.6,2.8,34,34,0,0,0-10.4,7.6,37.53,37.53,0,0,0,0,50.2,32.88,32.88,0,0,0,10.4,7.6,29,29,0,0,0,12.6,2.8,29.21,29.21,0,0,0,16.9-5A34,34,0,0,0,83.4,72.2Z"/><path class="cls-2" d="M154.8.3a50.92,50.92,0,0,1,21,4.3,54.4,54.4,0,0,1,16.9,11.7,52.6,52.6,0,0,1,11.2,17.4,56,56,0,0,1,4,21.3A58.43,58.43,0,0,1,205,73.3,54.61,54.61,0,0,1,196.8,89a53.63,53.63,0,0,1-12.7,12,49.09,49.09,0,0,1-16.2,7.1L157.2,90a27.41,27.41,0,0,0,11.7-3.4A33.24,33.24,0,0,0,178,79a35.2,35.2,0,0,0,5.9-10.8,40.25,40.25,0,0,0,2.1-13,38.55,38.55,0,0,0-2.4-13.6,33.88,33.88,0,0,0-6.5-11.1,31.61,31.61,0,0,0-9.8-7.5,30.75,30.75,0,0,0-25.2,0,30.22,30.22,0,0,0-9.9,7.5,35.17,35.17,0,0,0-6.6,11.1,39.73,39.73,0,0,0,0,27.2,34.09,34.09,0,0,0,6.6,11.1,33.25,33.25,0,0,0,9.9,7.5,29.06,29.06,0,0,0,12.6,2.7v19.8a50.92,50.92,0,0,1-21-4.3,52.77,52.77,0,0,1-16.9-11.7,54.72,54.72,0,0,1-11.2-17.4,55.68,55.68,0,0,1-4-21.3,56,56,0,0,1,4-21.3A52.77,52.77,0,0,1,133.7,4.8,48.79,48.79,0,0,1,154.8.3Z"/><path class="cls-3" d="M283.5,5.8a52.9,52.9,0,0,1,28.4,28.4,53.11,53.11,0,0,1,0,41.4A52.9,52.9,0,0,1,283.5,104a51.76,51.76,0,0,1-20.7,4.2H254L243.9,89.6h18.9a31,31,0,0,0,22.6-9.8,35.39,35.39,0,0,0,6.9-11,37.32,37.32,0,0,0,2.5-13.9,36.64,36.64,0,0,0-2.5-13.7,34.27,34.27,0,0,0-6.9-11,32.3,32.3,0,0,0-10.2-7.3,29.13,29.13,0,0,0-12.4-2.7H238.4v88H217.1V1.6h45.7a51.76,51.76,0,0,1,20.7,4.2Z"/><path class="cls-4" d="M396.7,1.6l.2,17.8H346.8l-.2,71.1h50.1v17.7H325.3V1.6ZM384.1,65.8H360.3L350.4,46h33.7Z"/><path class="cls-5" d="M519.8,69.9V89.4h-14v18.9H484.6V89.4H436.3V70.1L470.6,1.7h23.5L461,69.9ZM484.6,47.3h21.2V67.7L484.6,57Z"/><path class="cls-6" d="M608.9,1.6V108.2H587v-88H555.6V1.6Zm3.2,0h28.2V20.2H621.4Z"/><path class="cls-7" d="M670.3,64.2a27,27,0,0,0,1.9,10.3,26.08,26.08,0,0,0,5.3,8.4,24.56,24.56,0,0,0,7.8,5.7,22.31,22.31,0,0,0,9.5,2.1v18.8a45.21,45.21,0,0,1-18-3.6,47.89,47.89,0,0,1-14.7-9.8,46,46,0,0,1-9.9-14.6,45.21,45.21,0,0,1-3.6-18V1.7h21.6V64.2ZM740.7,1.6V63.5A43.21,43.21,0,0,1,738,78.8,47,47,0,0,1,719.7,102a47,47,0,0,1-13.9,6.2l-9.4-17.5a20.77,20.77,0,0,0,8.8-2.5,25.21,25.21,0,0,0,7.2-5.8,27.48,27.48,0,0,0,6.7-18c0-.1,0-.2-.1-.2s-.1-.1-.1-.2c0-.3,0-.4.1-.2s.1,0,.1-.5V1.7h21.6Z"/><path class="cls-8" d="M829.4,50.8a31.43,31.43,0,0,1,12.8,25.3,30.68,30.68,0,0,1-2.5,12.5,32.81,32.81,0,0,1-6.9,10.2,31.74,31.74,0,0,1-22.6,9.4H787.8l-9.9-18.6h32.6a8,8,0,0,0,4-1.1,12.89,12.89,0,0,0,3.3-2.8,15.75,15.75,0,0,0,2.2-3.8,10.6,10.6,0,0,0,.8-4.3,14.23,14.23,0,0,0-.8-4.5,11.12,11.12,0,0,0-2.4-3.9,14.44,14.44,0,0,0-3.4-2.7,8.31,8.31,0,0,0-4-1.1H772v42.8H750.7V1.5h51.9A30.54,30.54,0,0,1,815,4a32.49,32.49,0,0,1,17.1,17.1,30.54,30.54,0,0,1,2.5,12.4,30.55,30.55,0,0,1-1.4,9.2,37.55,37.55,0,0,1-3.8,8.1Zm-26.9-6.5a7.92,7.92,0,0,0,4-1,12.44,12.44,0,0,0,5.8-6.4,12.06,12.06,0,0,0,.8-4.6,13.89,13.89,0,0,0-.8-4.6,11.12,11.12,0,0,0-2.4-3.9,14.44,14.44,0,0,0-3.4-2.7,8.19,8.19,0,0,0-4-1H771.9V44.3Z"/><path class="cls-9" d="M921.8,89.4H873.1L865,108.3H842.1L885.8,1.7h23L880.6,70.4H914L898.9,33.8,916.1,19l36.4,89.3H929.7Z"/></g></g></svg>