<?xml version="1.0" encoding="utf-8"?>
<!-- Generator: Adobe Illustrator 20.0.0, SVG Export Plug-In . SVG Version: 6.00 Build 0)  -->
<svg version="1.1" id="Camada_1" xmlns="http://www.w3.org/2000/svg" xmlns:xlink="http://www.w3.org/1999/xlink" x="0px" y="0px"
	 viewBox="0 0 1000 1000" style="enable-background:new 0 0 1000 1000;" xml:space="preserve">
<style type="text/css">
	.st0{fill:url(#SVGID_1_);}
	.st1{fill:url(#SVGID_2_);}
	.st2{fill:url(#SVGID_3_);}
	.st3{fill:url(#SVGID_4_);}
	.st4{fill:url(#SVGID_5_);}
	.st5{fill:url(#SVGID_6_);}
	.st6{fill:url(#SVGID_7_);}
	.st7{fill:url(#SVGID_8_);}
	.st8{fill:url(#SVGID_9_);}
</style>
<g>
	<linearGradient id="SVGID_1_" gradientUnits="userSpaceOnUse" x1="21.8095" y1="489.457" x2="122.8074" y2="489.457">
		<stop  offset="0" style="stop-color:#559DFF"/>
		<stop  offset="4.635438e-02" style="stop-color:#4E99FF"/>
		<stop  offset="0.1598" style="stop-color:#4393FF"/>
		<stop  offset="0.2809" style="stop-color:#3F91FF"/>
		<stop  offset="0.6685" style="stop-color:#2A6DFF"/>
		<stop  offset="0.8876" style="stop-color:#0046E9"/>
		<stop  offset="1" style="stop-color:#004FD4"/>
	</linearGradient>
	<path class="st0" d="M122.8,518.2c-2.4,3.9-5.3,7.4-8.6,10.5c-3.3,3.1-6.9,5.9-10.9,8.1s-8.2,4-12.8,5.3c-4.6,1.2-9.3,1.8-14.2,1.8
		c-7.5,0-14.6-1.4-21.3-4.3c-6.7-2.8-12.4-6.7-17.4-11.7c-4.9-4.9-8.8-10.7-11.7-17.4c-2.8-6.6-4.3-13.7-4.3-21.3s1.4-14.6,4.3-21.3
		c2.8-6.6,6.7-12.4,11.7-17.4c4.9-4.9,10.7-8.8,17.4-11.7c6.6-2.8,13.7-4.3,21.3-4.3c4.9,0,9.6,0.6,14.2,1.8c4.6,1.2,8.8,3,12.8,5.3
		c4,2.3,7.6,5,10.9,8.2c3.3,3.1,6.2,6.7,8.6,10.5L105,472.1c-2.8-5.5-6.8-9.9-11.7-13.2c-5-3.3-10.6-5-16.9-5
		c-4.5,0-8.7,0.9-12.6,2.8c-4,1.9-7.4,4.4-10.4,7.6c-2.9,3.2-5.3,7-7,11.3c-1.7,4.3-2.6,8.9-2.6,13.8c0,4.9,0.9,9.5,2.6,13.8
		c1.7,4.3,4.1,8.1,7,11.3c2.9,3.2,6.4,5.7,10.4,7.6c4,1.9,8.2,2.8,12.6,2.8c6.3,0,11.9-1.6,16.9-5c5-3.3,8.9-7.7,11.7-13.2
		L122.8,518.2z"/>
	<linearGradient id="SVGID_2_" gradientUnits="userSpaceOnUse" x1="123.2641" y1="489.4578" x2="229.5942" y2="489.4578">
		<stop  offset="0" style="stop-color:#559DFF"/>
		<stop  offset="4.635438e-02" style="stop-color:#4E99FF"/>
		<stop  offset="0.1598" style="stop-color:#4393FF"/>
		<stop  offset="0.2809" style="stop-color:#3F91FF"/>
		<stop  offset="0.6685" style="stop-color:#2A6DFF"/>
		<stop  offset="0.8876" style="stop-color:#0046E9"/>
		<stop  offset="1" style="stop-color:#004FD4"/>
	</linearGradient>
	<path class="st1" d="M176.4,434.8c7.5,0,14.5,1.4,21,4.3c6.5,2.9,12.1,6.8,16.9,11.7c4.8,4.9,8.5,10.7,11.2,17.4
		c2.7,6.7,4,13.7,4,21.3c0,6.4-1,12.5-2.9,18.3c-1.9,5.8-4.7,11-8.2,15.7c-3.6,4.7-7.8,8.7-12.7,12c-4.9,3.3-10.3,5.7-16.2,7.1
		l-10.7-18.1c4.3-0.3,8.1-1.4,11.7-3.4c3.5-2,6.5-4.5,9.1-7.6c2.5-3.1,4.5-6.7,5.9-10.8c1.4-4.1,2.1-8.5,2.1-13
		c0-4.8-0.8-9.3-2.4-13.6c-1.6-4.3-3.7-8-6.5-11.1c-2.7-3.1-6-5.6-9.8-7.5c-3.8-1.8-8-2.7-12.6-2.7s-8.8,0.9-12.6,2.7
		c-3.8,1.8-7.1,4.3-9.9,7.5c-2.8,3.1-5,6.9-6.6,11.1c-1.6,4.3-2.4,8.8-2.4,13.6c0,4.8,0.8,9.3,2.4,13.6c1.6,4.3,3.8,8,6.6,11.1
		c2.8,3.1,6.1,5.6,9.9,7.5c3.8,1.8,8,2.7,12.6,2.7v19.8c-7.5,0-14.5-1.4-21-4.3c-6.5-2.8-12.1-6.8-16.9-11.7
		c-4.8-5-8.5-10.8-11.2-17.4c-2.7-6.6-4-13.7-4-21.3s1.3-14.6,4-21.3c2.7-6.6,6.4-12.4,11.2-17.4c4.8-4.9,10.4-8.8,16.9-11.7
		C161.9,436.2,168.9,434.8,176.4,434.8z"/>
	<linearGradient id="SVGID_3_" gradientUnits="userSpaceOnUse" x1="238.7312" y1="489.457" x2="337.748" y2="489.457">
		<stop  offset="0" style="stop-color:#559DFF"/>
		<stop  offset="4.635438e-02" style="stop-color:#4E99FF"/>
		<stop  offset="0.1598" style="stop-color:#4393FF"/>
		<stop  offset="0.2809" style="stop-color:#3F91FF"/>
		<stop  offset="0.6685" style="stop-color:#2A6DFF"/>
		<stop  offset="0.8876" style="stop-color:#0046E9"/>
		<stop  offset="1" style="stop-color:#004FD4"/>
	</linearGradient>
	<path class="st2" d="M305.1,440.3c6.5,2.8,12.2,6.6,17,11.4c4.8,4.8,8.6,10.5,11.4,17c2.8,6.5,4.2,13.4,4.2,20.7
		c0,7.3-1.4,14.2-4.2,20.7c-2.8,6.5-6.6,12.2-11.4,17c-4.8,4.8-10.5,8.6-17,11.4c-6.5,2.8-13.4,4.2-20.7,4.2h-8.8l-10.1-18.6h18.9
		c4.4,0,8.5-0.9,12.4-2.6c3.9-1.7,7.3-4.1,10.2-7.2c2.9-3.1,5.2-6.8,6.9-11c1.7-4.3,2.5-8.9,2.5-13.9c0-4.9-0.8-9.4-2.5-13.7
		c-1.7-4.3-4-7.9-6.9-11c-2.9-3.1-6.3-5.5-10.2-7.3c-3.9-1.8-8-2.7-12.4-2.7h-24.4v88h-21.3V436.1h45.7
		C291.7,436.1,298.6,437.5,305.1,440.3z"/>
	<linearGradient id="SVGID_4_" gradientUnits="userSpaceOnUse" x1="346.8882" y1="489.457" x2="418.4846" y2="489.457">
		<stop  offset="0" style="stop-color:#559DFF"/>
		<stop  offset="4.635438e-02" style="stop-color:#4E99FF"/>
		<stop  offset="0.1598" style="stop-color:#4393FF"/>
		<stop  offset="0.2809" style="stop-color:#3F91FF"/>
		<stop  offset="0.6685" style="stop-color:#2A6DFF"/>
		<stop  offset="0.8876" style="stop-color:#0046E9"/>
		<stop  offset="1" style="stop-color:#004FD4"/>
	</linearGradient>
	<path class="st3" d="M418.3,436.1l0.2,17.8h-50.1l-0.2,71.1h50.1v17.7h-71.4V436.1H418.3z M405.7,500.3h-23.8l-9.9-19.8h33.7V500.3
		z"/>
	<linearGradient id="SVGID_5_" gradientUnits="userSpaceOnUse" x1="457.9349" y1="489.457" x2="541.4147" y2="489.457">
		<stop  offset="0" style="stop-color:#559DFF"/>
		<stop  offset="4.635438e-02" style="stop-color:#4E99FF"/>
		<stop  offset="0.1598" style="stop-color:#4393FF"/>
		<stop  offset="0.2809" style="stop-color:#3F91FF"/>
		<stop  offset="0.6685" style="stop-color:#2A6DFF"/>
		<stop  offset="0.8876" style="stop-color:#0046E9"/>
		<stop  offset="1" style="stop-color:#004FD4"/>
	</linearGradient>
	<path class="st4" d="M541.4,504.4v19.5h-14v18.9h-21.2v-18.9h-48.3v-19.3l34.3-68.4h23.5l-33.1,68.2H541.4z M506.2,481.8h21.2v20.4
		l-21.2-10.7V481.8z"/>
	<linearGradient id="SVGID_6_" gradientUnits="userSpaceOnUse" x1="577.2114" y1="489.457" x2="661.9102" y2="489.457">
		<stop  offset="0" style="stop-color:#559DFF"/>
		<stop  offset="4.635438e-02" style="stop-color:#4E99FF"/>
		<stop  offset="0.1598" style="stop-color:#4393FF"/>
		<stop  offset="0.2809" style="stop-color:#3F91FF"/>
		<stop  offset="0.6685" style="stop-color:#2A6DFF"/>
		<stop  offset="0.8876" style="stop-color:#0046E9"/>
		<stop  offset="1" style="stop-color:#004FD4"/>
	</linearGradient>
	<path class="st5" d="M630.5,436.1v106.6h-21.9v-88h-31.4v-18.6H630.5z M633.7,436.1h28.2v18.6H643L633.7,436.1z"/>
	<linearGradient id="SVGID_7_" gradientUnits="userSpaceOnUse" x1="670.2866" y1="490.0664" x2="762.2955" y2="490.0664">
		<stop  offset="0" style="stop-color:#559DFF"/>
		<stop  offset="4.635438e-02" style="stop-color:#4E99FF"/>
		<stop  offset="0.1598" style="stop-color:#4393FF"/>
		<stop  offset="0.2809" style="stop-color:#3F91FF"/>
		<stop  offset="0.6685" style="stop-color:#2A6DFF"/>
		<stop  offset="0.8876" style="stop-color:#0046E9"/>
		<stop  offset="1" style="stop-color:#004FD4"/>
	</linearGradient>
	<path class="st6" d="M691.9,498.7c0,3.7,0.6,7.1,1.9,10.3c1.3,3.2,3,6,5.3,8.4c2.2,2.4,4.8,4.3,7.8,5.7c3,1.4,6.2,2.1,9.5,2.1V544
		c-6.4,0-12.4-1.2-18-3.6c-5.6-2.4-10.5-5.7-14.7-9.8c-4.2-4.2-7.5-9-9.9-14.6c-2.4-5.6-3.6-11.6-3.6-18v-61.8h21.6V498v0.3V498.7z
		 M762.3,436.1V498c0,5.4-0.9,10.5-2.7,15.3c-1.8,4.8-4.2,9.2-7.3,13.1c-3.1,3.9-6.8,7.3-11,10.1c-4.3,2.8-8.9,4.9-13.9,6.2
		l-9.4-17.5c3.1-0.2,6.1-1,8.8-2.5c2.7-1.5,5.2-3.4,7.2-5.8c2.1-2.4,3.7-5.1,4.9-8.2c1.2-3.1,1.8-6.4,1.8-9.8c0-0.1,0-0.2-0.1-0.2
		c-0.1,0-0.1-0.1-0.1-0.2c0-0.3,0-0.4,0.1-0.2c0,0.2,0.1,0,0.1-0.5c0-0.6,0-1.8,0-3.7c0-1.9,0-5.1,0-9.6c0-4.5,0-10.6,0-18.4
		c0-7.7,0-17.7,0-29.9H762.3z"/>
	<linearGradient id="SVGID_8_" gradientUnits="userSpaceOnUse" x1="772.1963" y1="489.3806" x2="863.7485" y2="489.3806">
		<stop  offset="0" style="stop-color:#559DFF"/>
		<stop  offset="4.635438e-02" style="stop-color:#4E99FF"/>
		<stop  offset="0.1598" style="stop-color:#4393FF"/>
		<stop  offset="0.2809" style="stop-color:#3F91FF"/>
		<stop  offset="0.6685" style="stop-color:#2A6DFF"/>
		<stop  offset="0.8876" style="stop-color:#0046E9"/>
		<stop  offset="1" style="stop-color:#004FD4"/>
	</linearGradient>
	<path class="st7" d="M851,485.3c3.9,2.8,7,6.5,9.3,10.9c2.3,4.4,3.5,9.2,3.5,14.4c0,4.5-0.8,8.6-2.5,12.5c-1.7,3.9-4,7.3-6.9,10.2
		s-6.3,5.3-10.2,6.9c-3.9,1.7-8.1,2.5-12.4,2.5h-22.4l-9.9-18.6h32.6c1.4,0,2.8-0.4,4-1.1c1.3-0.8,2.4-1.7,3.3-2.8
		c0.9-1.1,1.6-2.4,2.2-3.8c0.6-1.4,0.8-2.8,0.8-4.3c0-1.5-0.3-3-0.8-4.5c-0.6-1.5-1.3-2.8-2.4-3.9c-1-1.1-2.2-2-3.4-2.7
		c-1.3-0.7-2.6-1.1-4-1.1h-38.2v42.8h-21.3V436h51.9c4.4,0,8.5,0.8,12.4,2.5c3.9,1.7,7.3,4,10.2,6.9c2.9,2.9,5.2,6.3,6.9,10.2
		c1.7,3.9,2.5,8,2.5,12.4c0,3.3-0.5,6.3-1.4,9.2C853.8,480.1,852.6,482.8,851,485.3z M824.1,478.8c1.4,0,2.8-0.3,4-1
		c1.3-0.7,2.4-1.5,3.4-2.6c1-1.1,1.8-2.3,2.4-3.8c0.6-1.5,0.8-3,0.8-4.6c0-1.6-0.3-3.2-0.8-4.6c-0.6-1.5-1.3-2.8-2.4-3.9
		c-1-1.1-2.2-2-3.4-2.7c-1.3-0.7-2.6-1-4-1h-30.6v24.2H824.1z"/>
	<linearGradient id="SVGID_9_" gradientUnits="userSpaceOnUse" x1="863.7485" y1="489.457" x2="974.1905" y2="489.457">
		<stop  offset="0" style="stop-color:#559DFF"/>
		<stop  offset="4.635438e-02" style="stop-color:#4E99FF"/>
		<stop  offset="0.1598" style="stop-color:#4393FF"/>
		<stop  offset="0.2809" style="stop-color:#3F91FF"/>
		<stop  offset="0.6685" style="stop-color:#2A6DFF"/>
		<stop  offset="0.8876" style="stop-color:#0046E9"/>
		<stop  offset="1" style="stop-color:#004FD4"/>
	</linearGradient>
	<path class="st8" d="M943.4,523.9h-48.7l-8.1,18.9h-22.9l43.7-106.6h23l-28.2,68.7h33.4l-15.1-36.6l17.2-14.8l36.4,89.3h-22.8
		L943.4,523.9z"/>
</g>
</svg>
