<svg enable-background="new 0 0 1000 1000" viewBox="0 0 1000 1000" xmlns="http://www.w3.org/2000/svg" xmlns:xlink="http://www.w3.org/1999/xlink"><linearGradient id="a"><stop offset="0" stop-color="#559dff"/><stop offset=".04635438" stop-color="#4e99ff"/><stop offset=".1598" stop-color="#4393ff"/><stop offset=".2809" stop-color="#3f91ff"/><stop offset=".6685" stop-color="#2a6dff"/><stop offset=".8876" stop-color="#0046e9"/><stop offset="1" stop-color="#004fd4"/></linearGradient><linearGradient id="b" gradientUnits="userSpaceOnUse" x1="23.3968" x2="124.3947" xlink:href="#a" y1="625.6985" y2="625.6985"/><linearGradient id="c" gradientUnits="userSpaceOnUse" x1="124.8514" x2="231.1815" xlink:href="#a" y1="625.6993" y2="625.6993"/><linearGradient id="d" gradientUnits="userSpaceOnUse" x1="240.3185" x2="339.3353" xlink:href="#a" y1="625.6985" y2="625.6985"/><linearGradient id="e" gradientUnits="userSpaceOnUse" x1="348.4754" x2="420.0719" xlink:href="#a" y1="625.6985" y2="625.6985"/><linearGradient id="f" gradientUnits="userSpaceOnUse" x1="459.5222" x2="543.002" xlink:href="#a" y1="625.6985" y2="625.6985"/><linearGradient id="g" gradientUnits="userSpaceOnUse" x1="578.7987" x2="663.4975" xlink:href="#a" y1="625.6985" y2="625.6985"/><linearGradient id="h" gradientUnits="userSpaceOnUse" x1="671.8738" x2="763.8828" xlink:href="#a" y1="626.308" y2="626.308"/><linearGradient id="i" gradientUnits="userSpaceOnUse" x1="773.7836" x2="865.3358" xlink:href="#a" y1="625.6222" y2="625.6222"/><linearGradient id="j" gradientUnits="userSpaceOnUse" x1="865.3358" x2="975.7778" xlink:href="#a" y1="625.6985" y2="625.6985"/><linearGradient id="k" gradientUnits="userSpaceOnUse" x1="529.8629" x2="676.2911" xlink:href="#a" y1="430.9804" y2="430.9804"/><linearGradient id="l" gradientUnits="userSpaceOnUse" x1="453.0753" x2="624.7456" xlink:href="#a" y1="343.8221" y2="343.8221"/><linearGradient id="m" gradientUnits="userSpaceOnUse" x1="339.3353" x2="509.9105" xlink:href="#a" y1="386.8139" y2="386.8139"/><path d="m124.4 654.5c-2.4 3.9-5.3 7.4-8.6 10.5s-6.9 5.9-10.9 8.1c-4 2.3-8.2 4-12.8 5.3s-9.3 1.8-14.2 1.8c-7.5 0-14.6-1.4-21.3-4.3-6.7-2.8-12.4-6.7-17.4-11.7-4.9-4.9-8.8-10.7-11.7-17.4-2.8-6.6-4.3-13.7-4.3-21.3 0-7.5 1.4-14.6 4.3-21.3 2.8-6.6 6.7-12.4 11.7-17.4 4.9-4.9 10.7-8.8 17.4-11.7 6.6-2.8 13.7-4.3 21.3-4.3 4.9 0 9.6.6 14.2 1.8s8.8 3 12.8 5.3 7.6 5 10.9 8.2c3.3 3.1 6.2 6.7 8.6 10.5l-17.8 11.4c-2.8-5.5-6.8-9.9-11.7-13.2-5-3.3-10.6-5-16.9-5-4.5 0-8.7.9-12.6 2.8-4 1.9-7.4 4.4-10.4 7.6-2.9 3.2-5.3 7-7 11.3s-2.6 8.9-2.6 13.8.9 9.5 2.6 13.8 4.1 8.1 7 11.3 6.4 5.7 10.4 7.6 8.2 2.8 12.6 2.8c6.3 0 11.9-1.6 16.9-5 5-3.3 8.9-7.7 11.7-13.2z" fill="url(#b)"/><path d="m178 571c7.5 0 14.5 1.4 21 4.3s12.1 6.8 16.9 11.7 8.5 10.7 11.2 17.4 4 13.7 4 21.3c0 6.4-1 12.5-2.9 18.3s-4.7 11-8.2 15.7c-3.6 4.7-7.8 8.7-12.7 12s-10.3 5.7-16.2 7.1l-10.7-18.1c4.3-.3 8.1-1.4 11.7-3.4 3.5-2 6.5-4.5 9.1-7.6 2.5-3.1 4.5-6.7 5.9-10.8s2.1-8.5 2.1-13c0-4.8-.8-9.3-2.4-13.6s-3.7-8-6.5-11.1c-2.7-3.1-6-5.6-9.8-7.5-3.8-1.8-8-2.7-12.6-2.7s-8.8.9-12.6 2.7-7.1 4.3-9.9 7.5c-2.8 3.1-5 6.9-6.6 11.1-1.6 4.3-2.4 8.8-2.4 13.6s.8 9.3 2.4 13.6 3.8 8 6.6 11.1 6.1 5.6 9.9 7.5c3.8 1.8 8 2.7 12.6 2.7v19.8c-7.5 0-14.5-1.4-21-4.3-6.5-2.8-12.1-6.8-16.9-11.7-4.8-5-8.5-10.8-11.2-17.4s-4-13.7-4-21.3c0-7.5 1.3-14.6 4-21.3 2.7-6.6 6.4-12.4 11.2-17.4 4.8-4.9 10.4-8.8 16.9-11.7 6.6-3 13.6-4.5 21.1-4.5z" fill="url(#c)"/><path d="m306.7 576.6c6.5 2.8 12.2 6.6 17 11.4s8.6 10.5 11.4 17 4.2 13.4 4.2 20.7-1.4 14.2-4.2 20.7-6.6 12.2-11.4 17-10.5 8.6-17 11.4-13.4 4.2-20.7 4.2h-8.8l-10.1-18.6h18.9c4.4 0 8.5-.9 12.4-2.6s7.3-4.1 10.2-7.2 5.2-6.8 6.9-11c1.7-4.3 2.5-8.9 2.5-13.9 0-4.9-.8-9.4-2.5-13.7s-4-7.9-6.9-11-6.3-5.5-10.2-7.3-8-2.7-12.4-2.7h-24.4v88h-21.3v-106.6h45.7c7.3 0 14.2 1.4 20.7 4.2z" fill="url(#d)"/><path d="m419.9 572.4.2 17.8h-50.1l-.2 71.1h50.1v17.7h-71.4v-106.6zm-12.6 64.1h-23.8l-9.9-19.8h33.7z" fill="url(#e)"/><path d="m543 640.6v19.5h-14v18.9h-21.2v-18.9h-48.3v-19.3l34.3-68.4h23.5l-33.1 68.2zm-35.2-22.5h21.2v20.4l-21.2-10.7z" fill="url(#f)"/><path d="m632.1 572.4v106.6h-21.9v-88h-31.4v-18.6zm3.2 0h28.2v18.6h-18.9z" fill="url(#g)"/><path d="m693.5 635c0 3.7.6 7.1 1.9 10.3s3 6 5.3 8.4c2.2 2.4 4.8 4.3 7.8 5.7s6.2 2.1 9.5 2.1v18.7c-6.4 0-12.4-1.2-18-3.6s-10.5-5.7-14.7-9.8c-4.2-4.2-7.5-9-9.9-14.6s-3.6-11.6-3.6-18v-61.8h21.6v61.8.3.5zm70.4-62.6v61.8c0 5.4-.9 10.5-2.7 15.3s-4.2 9.2-7.3 13.1-6.8 7.3-11 10.1c-4.3 2.8-8.9 4.9-13.9 6.2l-9.4-17.5c3.1-.2 6.1-1 8.8-2.5s5.2-3.4 7.2-5.8c2.1-2.4 3.7-5.1 4.9-8.2s1.8-6.4 1.8-9.8c0-.1 0-.2-.1-.2s-.1-.1-.1-.2c0-.3 0-.4.1-.2 0 .2.1 0 .1-.5 0-.6 0-1.8 0-3.7s0-5.1 0-9.6 0-10.6 0-18.4c0-7.7 0-17.7 0-29.9z" fill="url(#h)"/><path d="m852.5 621.6c3.9 2.8 7 6.5 9.3 10.9s3.5 9.2 3.5 14.4c0 4.5-.8 8.6-2.5 12.5s-4 7.3-6.9 10.2-6.3 5.3-10.2 6.9c-3.9 1.7-8.1 2.5-12.4 2.5h-22.3l-9.9-18.6h32.6c1.4 0 2.8-.4 4-1.1 1.3-.8 2.4-1.7 3.3-2.8s1.6-2.4 2.2-3.8.8-2.8.8-4.3-.3-3-.8-4.5c-.6-1.5-1.3-2.8-2.4-3.9-1-1.1-2.2-2-3.4-2.7-1.3-.7-2.6-1.1-4-1.1h-38.2v42.8h-21.3v-106.8h51.9c4.4 0 8.5.8 12.4 2.5s7.3 4 10.2 6.9 5.2 6.3 6.9 10.2 2.5 8 2.5 12.4c0 3.3-.5 6.3-1.4 9.2-1 2.9-2.2 5.6-3.9 8.2zm-26.8-6.6c1.4 0 2.8-.3 4-1 1.3-.7 2.4-1.5 3.4-2.6s1.8-2.3 2.4-3.8.8-3 .8-4.6-.3-3.2-.8-4.6c-.6-1.5-1.3-2.8-2.4-3.9-1-1.1-2.2-2-3.4-2.7-1.3-.7-2.6-1-4-1h-30.6v24.2z" fill="url(#i)"/><path d="m945 660.1h-48.7l-8.1 18.9h-22.9l43.7-106.6h23l-28.2 68.7h33.4l-15.1-36.6 17.2-14.8 36.4 89.3h-22.8z" fill="url(#j)"/><path d="m529.9 345.5v83l48.5-83z" fill="none"/><path d="m628.1 345.5h-46.6c-2 0-3.8 1-4.7 2.7l-46.2 79c-.5.8-.7 1.8-.7 2.8v4.9 76.1c0 3 2.5 5.5 5.5 5.5h87.2c3 0 5.5-2.5 5.5-5.5v-70.6c0-3 2.5-5.5 5.5-5.5h37.3c3 0 5.5-2.5 5.5-5.5v-78.4c0-3-2.5-5.5-5.5-5.5z" fill="url(#k)"/><path d="m529.9 423v-72c0-3 2.5-5.5 5.5-5.5h39.9c2 0 3.8-1 4.7-2.7l44-75.4c2.1-3.7-.5-8.3-4.7-8.3h-89c-2 0-3.8 1-4.7 2.7l-71.7 122.7c-1 1.7-1 3.9 0 5.6l21.2 35.7c1 1.7 2.8 2.7 4.7 2.7h44.6c3 0 5.5-2.4 5.5-5.5z" fill="url(#l)"/><path d="m441.8 384.1 67.4-116.7c2.1-3.7-.5-8.2-4.8-8.2h-89c-2 0-3.8 1-4.8 2.7l-70.6 122.2c-1 1.7-1 3.8 0 5.5l70.6 122.2c1 1.7 2.8 2.7 4.8 2.7h89c4.2 0 6.9-4.6 4.8-8.2l-67.4-116.7c-1-1.7-1-3.8 0-5.5z" fill="url(#m)"/><g fill="#fff"><path d="m466.2 431.9 2.1 3.7h.1z"/><path d="m446.3 397.4-5.8-10z"/><path d="m466.2 431.9-19.9-34.5z"/></g></svg>