<svg enable-background="new 0 0 1000 1000" viewBox="0 0 1000 1000" xmlns="http://www.w3.org/2000/svg" xmlns:xlink="http://www.w3.org/1999/xlink"><linearGradient id="a"><stop offset="0" stop-color="#559dff"/><stop offset=".04635438" stop-color="#4e99ff"/><stop offset=".1598" stop-color="#4393ff"/><stop offset=".2809" stop-color="#3f91ff"/><stop offset=".6685" stop-color="#2a6dff"/><stop offset=".8876" stop-color="#0046e9"/><stop offset="1" stop-color="#004fd4"/></linearGradient><linearGradient id="b" gradientUnits="userSpaceOnUse" x1="225.3545" x2="304.7669" xlink:href="#a" y1="501.1452" y2="501.1452"/><linearGradient id="c" gradientUnits="userSpaceOnUse" x1="305.126" x2="388.731" xlink:href="#a" y1="501.1458" y2="501.1458"/><linearGradient id="d" gradientUnits="userSpaceOnUse" x1="395.9153" x2="473.77" xlink:href="#a" y1="501.1452" y2="501.1452"/><linearGradient id="e" gradientUnits="userSpaceOnUse" x1="480.9566" x2="537.2513" xlink:href="#a" y1="501.1452" y2="501.1452"/><linearGradient id="f" gradientUnits="userSpaceOnUse" x1="568.2702" x2="633.9086" xlink:href="#a" y1="501.1452" y2="501.1452"/><linearGradient id="g" gradientUnits="userSpaceOnUse" x1="662.0547" x2="728.6514" xlink:href="#a" y1="501.1452" y2="501.1452"/><linearGradient id="h" gradientUnits="userSpaceOnUse" x1="735.2376" x2="807.5822" xlink:href="#a" y1="501.6244" y2="501.6244"/><linearGradient id="i" gradientUnits="userSpaceOnUse" x1="815.3669" x2="887.3524" xlink:href="#a" y1="501.0851" y2="501.0851"/><linearGradient id="j" gradientUnits="userSpaceOnUse" x1="887.3524" x2="974.1905" xlink:href="#a" y1="501.1452" y2="501.1452"/><linearGradient id="k" gradientUnits="userSpaceOnUse" x1="128.4509" x2="207.5239" xlink:href="#a" y1="523.1223" y2="523.1223"/><linearGradient id="l" gradientUnits="userSpaceOnUse" x1="86.9848" x2="179.6887" xlink:href="#a" y1="476.0558" y2="476.0558"/><linearGradient id="m" gradientUnits="userSpaceOnUse" x1="25.5639" x2="117.6764" xlink:href="#a" y1="499.2719" y2="499.2719"/><path d="m304.8 523.8c-1.9 3-4.2 5.8-6.8 8.3s-5.4 4.6-8.6 6.4c-3.1 1.8-6.5 3.2-10.1 4.1-3.6 1-7.3 1.4-11.1 1.4-5.9 0-11.5-1.1-16.7-3.4-5.2-2.2-9.8-5.3-13.7-9.2s-6.9-8.4-9.2-13.7c-2.2-5.2-3.4-10.8-3.4-16.7s1.1-11.5 3.4-16.7c2.2-5.2 5.3-9.8 9.2-13.7s8.4-6.9 13.7-9.2c5.2-2.2 10.8-3.4 16.7-3.4 3.8 0 7.5.5 11.1 1.4 3.6 1 6.9 2.3 10.1 4.1 3.1 1.8 6 3.9 8.6 6.4s4.9 5.2 6.8 8.3l-14 9c-2.2-4.3-5.3-7.8-9.2-10.4s-8.3-3.9-13.3-3.9c-3.5 0-6.8.7-9.9 2.2s-5.8 3.5-8.1 6-4.2 5.5-5.5 8.9c-1.4 3.4-2 7-2 10.8s.7 7.4 2 10.8c1.4 3.4 3.2 6.3 5.5 8.9 2.3 2.5 5 4.5 8.1 6s6.4 2.2 9.9 2.2c5 0 9.4-1.3 13.3-3.9s7-6 9.2-10.4z" fill="url(#b)"/><path d="m346.9 458.1c5.9 0 11.4 1.1 16.5 3.4s9.5 5.3 13.3 9.2 6.7 8.4 8.8 13.7c2.1 5.2 3.2 10.8 3.2 16.7 0 5-.8 9.8-2.3 14.4s-3.7 8.7-6.5 12.3c-2.8 3.7-6.1 6.8-10 9.4s-8.1 4.5-12.8 5.6l-8.4-14.3c3.4-.2 6.4-1.1 9.2-2.7s5.1-3.6 7.1-6 3.6-5.3 4.7-8.5 1.7-6.6 1.7-10.2c0-3.8-.6-7.3-1.9-10.7-1.2-3.4-2.9-6.3-5.1-8.7-2.2-2.5-4.7-4.4-7.7-5.9-3-1.4-6.3-2.2-9.9-2.2s-6.9.7-9.9 2.2c-3 1.4-5.6 3.4-7.8 5.9s-3.9 5.4-5.2 8.7c-1.2 3.4-1.9 6.9-1.9 10.7s.6 7.3 1.9 10.7c1.2 3.4 3 6.3 5.2 8.7 2.2 2.5 4.8 4.4 7.8 5.9 3 1.4 6.3 2.2 9.9 2.2v15.6c-5.9 0-11.4-1.1-16.5-3.4-5.1-2.2-9.5-5.3-13.3-9.2s-6.7-8.5-8.8-13.7-3.2-10.8-3.2-16.7 1.1-11.5 3.2-16.7 5.1-9.8 8.8-13.7c3.8-3.9 8.2-6.9 13.3-9.2 5.2-2.3 10.7-3.5 16.6-3.5z" fill="url(#c)"/><path d="m448.1 462.5c5.1 2.2 9.6 5.2 13.4 9s6.8 8.2 9 13.4c2.2 5.1 3.3 10.5 3.3 16.3 0 5.7-1.1 11.2-3.3 16.3s-5.2 9.6-9 13.4-8.2 6.8-13.4 9c-5.1 2.2-10.5 3.3-16.3 3.3h-6.9l-7.9-14.6h14.9c3.4 0 6.7-.7 9.8-2 3.1-1.4 5.7-3.3 8-5.7s4.1-5.3 5.4-8.7 2-7 2-10.9c0-3.8-.7-7.4-2-10.8s-3.1-6.2-5.4-8.7c-2.3-2.4-5-4.4-8-5.8-3.1-1.4-6.3-2.1-9.8-2.1h-19.2v69.2h-16.8v-83.8h35.9c5.8-.1 11.2 1 16.3 3.2z" fill="url(#d)"/><path d="m537.1 459.2.1 14h-39.4l-.1 55.9h39.4v13.9h-56.1v-83.8zm-9.9 50.4h-18.7l-7.8-15.6h26.5z" fill="url(#e)"/><path d="m633.9 512.9v15.3h-11v14.9h-16.6v-14.9h-38v-15.2l27-53.8h18.4l-26 53.7zm-27.7-17.7h16.6v16l-16.6-8.4z" fill="url(#f)"/><path d="m704 459.2v83.8h-17.2v-69.2h-24.7v-14.6zm2.5 0h22.2v14.6h-14.9z" fill="url(#g)"/><path d="m752.2 508.5c0 2.9.5 5.6 1.5 8.1s2.4 4.7 4.1 6.6c1.8 1.9 3.8 3.4 6.2 4.5s4.9 1.7 7.5 1.7v14.6c-5 0-9.7-.9-14.1-2.8s-8.2-4.5-11.6-7.7c-3.3-3.3-5.9-7.1-7.8-11.5s-2.8-9.1-2.8-14.1v-48.6h17v48.6.2zm55.4-49.3v48.6c0 4.2-.7 8.2-2.1 12s-3.3 7.2-5.8 10.3c-2.4 3.1-5.3 5.7-8.7 7.9s-7 3.8-10.9 4.9l-7.4-13.8c2.5-.2 4.8-.8 6.9-2 2.2-1.2 4.1-2.7 5.7-4.6s2.9-4 3.8-6.5c.9-2.4 1.4-5 1.4-7.7 0-.1 0-.1-.1-.2 0 0-.1-.1-.1-.2 0-.2 0-.3.1-.1 0 .2.1 0 .1-.4s0-1.4 0-2.9 0-4 0-7.5c0-3.6 0-8.4 0-14.4 0-6.1 0-13.9 0-23.5h17.1z" fill="url(#h)"/><path d="m877.3 497.9c3 2.2 5.5 5.1 7.3 8.6s2.8 7.2 2.8 11.3c0 3.5-.7 6.8-2 9.8s-3.1 5.7-5.4 8-5 4.1-8 5.4c-3.1 1.3-6.3 2-9.8 2h-17.6l-7.8-14.6h25.6c1.1 0 2.2-.3 3.2-.9s1.9-1.3 2.6-2.2 1.3-1.9 1.7-3 .7-2.2.7-3.4-.2-2.4-.7-3.5c-.4-1.2-1.1-2.2-1.9-3.1s-1.7-1.6-2.7-2.2-2.1-.8-3.2-.8h-30.1v33.7h-16.8v-84h40.8c3.4 0 6.7.7 9.8 2s5.7 3.1 8 5.4 4.1 5 5.4 8c1.3 3.1 2 6.3 2 9.8 0 2.6-.4 5-1.1 7.2-.5 2.4-1.5 4.5-2.8 6.5zm-21.1-5.1c1.1 0 2.2-.3 3.2-.8s1.9-1.2 2.7-2 1.4-1.8 1.9-3c.4-1.2.7-2.4.7-3.7s-.2-2.5-.7-3.7c-.4-1.2-1.1-2.2-1.9-3.1s-1.7-1.6-2.7-2.1-2.1-.8-3.2-.8h-24.1v19h24.1z" fill="url(#i)"/><path d="m950 528.2h-38.3l-6.3 14.9h-18l34.4-83.8h18.1l-22.2 54h26.2l-11.9-28.8 13.5-11.6 28.6 70.2h-18z" fill="url(#j)"/><path d="m128.5 477v44.8l26.1-44.8z" fill="none"/><path d="m181.5 477h-25.1c-1.1 0-2 .6-2.6 1.5l-24.9 42.7c-.3.5-.4 1-.4 1.5v2.7 41.1c0 1.6 1.3 3 3 3h47.1c1.6 0 3-1.3 3-3v-38.1c0-1.6 1.3-3 3-3h20.1c1.6 0 3-1.3 3-3v-42.4c0-1.6-1.3-3-3-3z" fill="url(#k)"/><path d="m128.5 518.8v-38.9c0-1.6 1.3-3 3-3h21.5c1.1 0 2-.6 2.6-1.5l23.8-40.7c1.2-2-.3-4.5-2.6-4.5h-48.1c-1.1 0-2 .6-2.6 1.5l-38.7 66.3c-.5.9-.5 2.1 0 3l11.5 19.3c.5.9 1.5 1.4 2.5 1.4h24.1c1.6.1 3-1.2 3-2.9z" fill="url(#l)"/><path d="m80.9 497.8 36.4-63c1.1-2-.3-4.4-2.6-4.4h-48.1c-1.1 0-2 .6-2.6 1.5l-38.1 66c-.5.9-.5 2 0 3l38.1 66c.5.9 1.5 1.5 2.6 1.5h48.1c2.3 0 3.7-2.5 2.6-4.4l-36.4-63c-.5-1.2-.5-2.3 0-3.2z" fill="url(#m)"/><g fill="#fff"><path d="m94.1 523.6 1.1 2z"/><path d="m83.3 505-3.1-5.4z"/><path d="m94.1 523.6-10.8-18.6z"/></g></svg>