<?xml version="1.0" encoding="utf-8"?>
<!-- Generator: Adobe Illustrator 20.0.0, SVG Export Plug-In . SVG Version: 6.00 Build 0)  -->
<svg version="1.1" id="Camada_1" xmlns="http://www.w3.org/2000/svg" xmlns:xlink="http://www.w3.org/1999/xlink" x="0px" y="0px"
	 viewBox="0 0 1000 1000" style="enable-background:new 0 0 1000 1000;" xml:space="preserve">
<style type="text/css">
	.st0{fill:url(#SVGID_1_);}
	.st1{fill:url(#SVGID_2_);}
	.st2{fill:url(#SVGID_3_);}
	.st3{fill:url(#SVGID_4_);}
	.st4{fill:url(#SVGID_5_);}
	.st5{fill:url(#SVGID_6_);}
	.st6{fill:url(#SVGID_7_);}
	.st7{fill:url(#SVGID_8_);}
	.st8{fill:url(#SVGID_9_);}
	.st9{fill:none;}
	.st10{fill:url(#SVGID_10_);}
	.st11{fill:url(#SVGID_11_);}
	.st12{fill:url(#SVGID_12_);}
	.st13{fill:#FFFFFF;}
</style>
<g>
	<linearGradient id="SVGID_1_" gradientUnits="userSpaceOnUse" x1="225.3545" y1="501.1452" x2="304.7669" y2="501.1452">
		<stop  offset="0" style="stop-color:#559DFF"/>
		<stop  offset="4.635438e-02" style="stop-color:#4E99FF"/>
		<stop  offset="0.1598" style="stop-color:#4393FF"/>
		<stop  offset="0.2809" style="stop-color:#3F91FF"/>
		<stop  offset="0.6685" style="stop-color:#2A6DFF"/>
		<stop  offset="0.8876" style="stop-color:#0046E9"/>
		<stop  offset="1" style="stop-color:#004FD4"/>
	</linearGradient>
	<path class="st0" d="M304.8,523.8c-1.9,3-4.2,5.8-6.8,8.3c-2.6,2.5-5.4,4.6-8.6,6.4c-3.1,1.8-6.5,3.2-10.1,4.1
		c-3.6,1-7.3,1.4-11.1,1.4c-5.9,0-11.5-1.1-16.7-3.4c-5.2-2.2-9.8-5.3-13.7-9.2c-3.9-3.9-6.9-8.4-9.2-13.7
		c-2.2-5.2-3.4-10.8-3.4-16.7s1.1-11.5,3.4-16.7c2.2-5.2,5.3-9.8,9.2-13.7c3.9-3.9,8.4-6.9,13.7-9.2c5.2-2.2,10.8-3.4,16.7-3.4
		c3.8,0,7.5,0.5,11.1,1.4c3.6,1,6.9,2.3,10.1,4.1c3.1,1.8,6,3.9,8.6,6.4c2.6,2.5,4.9,5.2,6.8,8.3l-14,9c-2.2-4.3-5.3-7.8-9.2-10.4
		c-3.9-2.6-8.3-3.9-13.3-3.9c-3.5,0-6.8,0.7-9.9,2.2c-3.1,1.5-5.8,3.5-8.1,6c-2.3,2.5-4.2,5.5-5.5,8.9c-1.4,3.4-2,7-2,10.8
		c0,3.8,0.7,7.4,2,10.8c1.4,3.4,3.2,6.3,5.5,8.9c2.3,2.5,5,4.5,8.1,6c3.1,1.5,6.4,2.2,9.9,2.2c5,0,9.4-1.3,13.3-3.9
		c3.9-2.6,7-6,9.2-10.4L304.8,523.8z"/>
	<linearGradient id="SVGID_2_" gradientUnits="userSpaceOnUse" x1="305.126" y1="501.1458" x2="388.731" y2="501.1458">
		<stop  offset="0" style="stop-color:#559DFF"/>
		<stop  offset="4.635438e-02" style="stop-color:#4E99FF"/>
		<stop  offset="0.1598" style="stop-color:#4393FF"/>
		<stop  offset="0.2809" style="stop-color:#3F91FF"/>
		<stop  offset="0.6685" style="stop-color:#2A6DFF"/>
		<stop  offset="0.8876" style="stop-color:#0046E9"/>
		<stop  offset="1" style="stop-color:#004FD4"/>
	</linearGradient>
	<path class="st1" d="M346.9,458.1c5.9,0,11.4,1.1,16.5,3.4c5.1,2.3,9.5,5.3,13.3,9.2c3.8,3.9,6.7,8.4,8.8,13.7
		c2.1,5.2,3.2,10.8,3.2,16.7c0,5-0.8,9.8-2.3,14.4c-1.5,4.6-3.7,8.7-6.5,12.3c-2.8,3.7-6.1,6.8-10,9.4c-3.9,2.6-8.1,4.5-12.8,5.6
		l-8.4-14.3c3.4-0.2,6.4-1.1,9.2-2.7c2.8-1.6,5.1-3.6,7.1-6c2-2.4,3.6-5.3,4.7-8.5c1.1-3.2,1.7-6.6,1.7-10.2c0-3.8-0.6-7.3-1.9-10.7
		c-1.2-3.4-2.9-6.3-5.1-8.7c-2.2-2.5-4.7-4.4-7.7-5.9c-3-1.4-6.3-2.2-9.9-2.2c-3.6,0-6.9,0.7-9.9,2.2c-3,1.4-5.6,3.4-7.8,5.9
		c-2.2,2.5-3.9,5.4-5.2,8.7c-1.2,3.4-1.9,6.9-1.9,10.7c0,3.8,0.6,7.3,1.9,10.7c1.2,3.4,3,6.3,5.2,8.7c2.2,2.5,4.8,4.4,7.8,5.9
		c3,1.4,6.3,2.2,9.9,2.2v15.6c-5.9,0-11.4-1.1-16.5-3.4c-5.1-2.2-9.5-5.3-13.3-9.2c-3.8-3.9-6.7-8.5-8.8-13.7
		c-2.1-5.2-3.2-10.8-3.2-16.7s1.1-11.5,3.2-16.7c2.1-5.2,5.1-9.8,8.8-13.7c3.8-3.9,8.2-6.9,13.3-9.2
		C335.5,459.3,341,458.1,346.9,458.1z"/>
	<linearGradient id="SVGID_3_" gradientUnits="userSpaceOnUse" x1="395.9153" y1="501.1452" x2="473.77" y2="501.1452">
		<stop  offset="0" style="stop-color:#559DFF"/>
		<stop  offset="4.635438e-02" style="stop-color:#4E99FF"/>
		<stop  offset="0.1598" style="stop-color:#4393FF"/>
		<stop  offset="0.2809" style="stop-color:#3F91FF"/>
		<stop  offset="0.6685" style="stop-color:#2A6DFF"/>
		<stop  offset="0.8876" style="stop-color:#0046E9"/>
		<stop  offset="1" style="stop-color:#004FD4"/>
	</linearGradient>
	<path class="st2" d="M448.1,462.5c5.1,2.2,9.6,5.2,13.4,9c3.8,3.8,6.8,8.2,9,13.4c2.2,5.1,3.3,10.5,3.3,16.3
		c0,5.7-1.1,11.2-3.3,16.3c-2.2,5.1-5.2,9.6-9,13.4c-3.8,3.8-8.2,6.8-13.4,9c-5.1,2.2-10.5,3.3-16.3,3.3h-6.9l-7.9-14.6h14.9
		c3.4,0,6.7-0.7,9.8-2c3.1-1.4,5.7-3.3,8-5.7c2.3-2.4,4.1-5.3,5.4-8.7c1.3-3.4,2-7,2-10.9c0-3.8-0.7-7.4-2-10.8
		c-1.3-3.4-3.1-6.2-5.4-8.7c-2.3-2.4-5-4.4-8-5.8c-3.1-1.4-6.3-2.1-9.8-2.1h-19.2v69.2h-16.8v-83.8h35.9
		C437.6,459.2,443,460.3,448.1,462.5z"/>
	<linearGradient id="SVGID_4_" gradientUnits="userSpaceOnUse" x1="480.9566" y1="501.1452" x2="537.2513" y2="501.1452">
		<stop  offset="0" style="stop-color:#559DFF"/>
		<stop  offset="4.635438e-02" style="stop-color:#4E99FF"/>
		<stop  offset="0.1598" style="stop-color:#4393FF"/>
		<stop  offset="0.2809" style="stop-color:#3F91FF"/>
		<stop  offset="0.6685" style="stop-color:#2A6DFF"/>
		<stop  offset="0.8876" style="stop-color:#0046E9"/>
		<stop  offset="1" style="stop-color:#004FD4"/>
	</linearGradient>
	<path class="st3" d="M537.1,459.2l0.1,14h-39.4l-0.1,55.9h39.4v13.9H481v-83.8H537.1z M527.2,509.6h-18.7l-7.8-15.6h26.5V509.6z"/>
	<linearGradient id="SVGID_5_" gradientUnits="userSpaceOnUse" x1="568.2702" y1="501.1452" x2="633.9086" y2="501.1452">
		<stop  offset="0" style="stop-color:#559DFF"/>
		<stop  offset="4.635438e-02" style="stop-color:#4E99FF"/>
		<stop  offset="0.1598" style="stop-color:#4393FF"/>
		<stop  offset="0.2809" style="stop-color:#3F91FF"/>
		<stop  offset="0.6685" style="stop-color:#2A6DFF"/>
		<stop  offset="0.8876" style="stop-color:#0046E9"/>
		<stop  offset="1" style="stop-color:#004FD4"/>
	</linearGradient>
	<path class="st4" d="M633.9,512.9v15.3h-11v14.9h-16.6v-14.9h-38V513l27-53.8h18.4l-26,53.7H633.9z M606.2,495.2h16.6v16l-16.6-8.4
		V495.2z"/>
	<linearGradient id="SVGID_6_" gradientUnits="userSpaceOnUse" x1="662.0547" y1="501.1452" x2="728.6514" y2="501.1452">
		<stop  offset="0" style="stop-color:#559DFF"/>
		<stop  offset="4.635438e-02" style="stop-color:#4E99FF"/>
		<stop  offset="0.1598" style="stop-color:#4393FF"/>
		<stop  offset="0.2809" style="stop-color:#3F91FF"/>
		<stop  offset="0.6685" style="stop-color:#2A6DFF"/>
		<stop  offset="0.8876" style="stop-color:#0046E9"/>
		<stop  offset="1" style="stop-color:#004FD4"/>
	</linearGradient>
	<path class="st5" d="M704,459.2v83.8h-17.2v-69.2h-24.7v-14.6H704z M706.5,459.2h22.2v14.6h-14.9L706.5,459.2z"/>
	<linearGradient id="SVGID_7_" gradientUnits="userSpaceOnUse" x1="735.2376" y1="501.6244" x2="807.5822" y2="501.6244">
		<stop  offset="0" style="stop-color:#559DFF"/>
		<stop  offset="4.635438e-02" style="stop-color:#4E99FF"/>
		<stop  offset="0.1598" style="stop-color:#4393FF"/>
		<stop  offset="0.2809" style="stop-color:#3F91FF"/>
		<stop  offset="0.6685" style="stop-color:#2A6DFF"/>
		<stop  offset="0.8876" style="stop-color:#0046E9"/>
		<stop  offset="1" style="stop-color:#004FD4"/>
	</linearGradient>
	<path class="st6" d="M752.2,508.5c0,2.9,0.5,5.6,1.5,8.1c1,2.5,2.4,4.7,4.1,6.6c1.8,1.9,3.8,3.4,6.2,4.5c2.4,1.1,4.9,1.7,7.5,1.7
		V544c-5,0-9.7-0.9-14.1-2.8c-4.4-1.9-8.2-4.5-11.6-7.7c-3.3-3.3-5.9-7.1-7.8-11.5c-1.9-4.4-2.8-9.1-2.8-14.1v-48.6h17v48.6v0.2
		V508.5z M807.6,459.2v48.6c0,4.2-0.7,8.2-2.1,12c-1.4,3.8-3.3,7.2-5.8,10.3c-2.4,3.1-5.3,5.7-8.7,7.9c-3.4,2.2-7,3.8-10.9,4.9
		l-7.4-13.8c2.5-0.2,4.8-0.8,6.9-2c2.2-1.2,4.1-2.7,5.7-4.6c1.6-1.9,2.9-4,3.8-6.5c0.9-2.4,1.4-5,1.4-7.7c0-0.1,0-0.1-0.1-0.2
		c0,0-0.1-0.1-0.1-0.2c0-0.2,0-0.3,0.1-0.1c0,0.2,0.1,0,0.1-0.4c0-0.4,0-1.4,0-2.9c0-1.5,0-4,0-7.5c0-3.6,0-8.4,0-14.4
		c0-6.1,0-13.9,0-23.5H807.6z"/>
	<linearGradient id="SVGID_8_" gradientUnits="userSpaceOnUse" x1="815.3669" y1="501.0851" x2="887.3524" y2="501.0851">
		<stop  offset="0" style="stop-color:#559DFF"/>
		<stop  offset="4.635438e-02" style="stop-color:#4E99FF"/>
		<stop  offset="0.1598" style="stop-color:#4393FF"/>
		<stop  offset="0.2809" style="stop-color:#3F91FF"/>
		<stop  offset="0.6685" style="stop-color:#2A6DFF"/>
		<stop  offset="0.8876" style="stop-color:#0046E9"/>
		<stop  offset="1" style="stop-color:#004FD4"/>
	</linearGradient>
	<path class="st7" d="M877.3,497.9c3,2.2,5.5,5.1,7.3,8.6c1.8,3.5,2.8,7.2,2.8,11.3c0,3.5-0.7,6.8-2,9.8c-1.3,3-3.1,5.7-5.4,8
		c-2.3,2.3-5,4.1-8,5.4c-3.1,1.3-6.3,2-9.8,2h-17.6l-7.8-14.6h25.6c1.1,0,2.2-0.3,3.2-0.9c1-0.6,1.9-1.3,2.6-2.2
		c0.7-0.9,1.3-1.9,1.7-3c0.4-1.1,0.7-2.2,0.7-3.4c0-1.2-0.2-2.4-0.7-3.5c-0.4-1.2-1.1-2.2-1.9-3.1c-0.8-0.9-1.7-1.6-2.7-2.2
		c-1-0.6-2.1-0.8-3.2-0.8h-30.1v33.7h-16.8v-84h40.8c3.4,0,6.7,0.7,9.8,2c3.1,1.3,5.7,3.1,8,5.4c2.3,2.3,4.1,5,5.4,8
		c1.3,3.1,2,6.3,2,9.8c0,2.6-0.4,5-1.1,7.2C879.6,493.8,878.6,495.9,877.3,497.9z M856.2,492.8c1.1,0,2.2-0.3,3.2-0.8
		c1-0.5,1.9-1.2,2.7-2c0.8-0.8,1.4-1.8,1.9-3c0.4-1.2,0.7-2.4,0.7-3.7c0-1.3-0.2-2.5-0.7-3.7c-0.4-1.2-1.1-2.2-1.9-3.1
		c-0.8-0.9-1.7-1.6-2.7-2.1c-1-0.5-2.1-0.8-3.2-0.8h-24.1v19H856.2z"/>
	<linearGradient id="SVGID_9_" gradientUnits="userSpaceOnUse" x1="887.3524" y1="501.1452" x2="974.1905" y2="501.1452">
		<stop  offset="0" style="stop-color:#559DFF"/>
		<stop  offset="4.635438e-02" style="stop-color:#4E99FF"/>
		<stop  offset="0.1598" style="stop-color:#4393FF"/>
		<stop  offset="0.2809" style="stop-color:#3F91FF"/>
		<stop  offset="0.6685" style="stop-color:#2A6DFF"/>
		<stop  offset="0.8876" style="stop-color:#0046E9"/>
		<stop  offset="1" style="stop-color:#004FD4"/>
	</linearGradient>
	<path class="st8" d="M950,528.2h-38.3l-6.3,14.9h-18l34.4-83.8h18.1l-22.2,54h26.2L932,484.5l13.5-11.6l28.6,70.2h-18L950,528.2z"
		/>
</g>
<g>
	<polygon class="st9" points="128.5,477 128.5,521.8 154.6,477 	"/>
	<linearGradient id="SVGID_10_" gradientUnits="userSpaceOnUse" x1="128.4509" y1="523.1223" x2="207.5239" y2="523.1223">
		<stop  offset="0" style="stop-color:#559DFF"/>
		<stop  offset="4.635438e-02" style="stop-color:#4E99FF"/>
		<stop  offset="0.1598" style="stop-color:#4393FF"/>
		<stop  offset="0.2809" style="stop-color:#3F91FF"/>
		<stop  offset="0.6685" style="stop-color:#2A6DFF"/>
		<stop  offset="0.8876" style="stop-color:#0046E9"/>
		<stop  offset="1" style="stop-color:#004FD4"/>
	</linearGradient>
	<path class="st10" d="M181.5,477h-25.1c-1.1,0-2,0.6-2.6,1.5l-24.9,42.7c-0.3,0.5-0.4,1-0.4,1.5v2.7v41.1c0,1.6,1.3,3,3,3h47.1
		c1.6,0,3-1.3,3-3v-38.1c0-1.6,1.3-3,3-3h20.1c1.6,0,3-1.3,3-3v-42.4c0-1.6-1.3-3-3-3H181.5z"/>
	<linearGradient id="SVGID_11_" gradientUnits="userSpaceOnUse" x1="86.9848" y1="476.0558" x2="179.6887" y2="476.0558">
		<stop  offset="0" style="stop-color:#559DFF"/>
		<stop  offset="4.635438e-02" style="stop-color:#4E99FF"/>
		<stop  offset="0.1598" style="stop-color:#4393FF"/>
		<stop  offset="0.2809" style="stop-color:#3F91FF"/>
		<stop  offset="0.6685" style="stop-color:#2A6DFF"/>
		<stop  offset="0.8876" style="stop-color:#0046E9"/>
		<stop  offset="1" style="stop-color:#004FD4"/>
	</linearGradient>
	<path class="st11" d="M128.5,518.8v-38.9c0-1.6,1.3-3,3-3h21.5c1.1,0,2-0.6,2.6-1.5l23.8-40.7c1.2-2-0.3-4.5-2.6-4.5h-48.1
		c-1.1,0-2,0.6-2.6,1.5l-38.7,66.3c-0.5,0.9-0.5,2.1,0,3l11.5,19.3c0.5,0.9,1.5,1.4,2.5,1.4h24.1
		C127.1,521.8,128.5,520.5,128.5,518.8z"/>
	<linearGradient id="SVGID_12_" gradientUnits="userSpaceOnUse" x1="25.5639" y1="499.2719" x2="117.6764" y2="499.2719">
		<stop  offset="0" style="stop-color:#559DFF"/>
		<stop  offset="4.635438e-02" style="stop-color:#4E99FF"/>
		<stop  offset="0.1598" style="stop-color:#4393FF"/>
		<stop  offset="0.2809" style="stop-color:#3F91FF"/>
		<stop  offset="0.6685" style="stop-color:#2A6DFF"/>
		<stop  offset="0.8876" style="stop-color:#0046E9"/>
		<stop  offset="1" style="stop-color:#004FD4"/>
	</linearGradient>
	<path class="st12" d="M80.9,497.8l36.4-63c1.1-2-0.3-4.4-2.6-4.4H66.6c-1.1,0-2,0.6-2.6,1.5l-38.1,66c-0.5,0.9-0.5,2,0,3l38.1,66
		c0.5,0.9,1.5,1.5,2.6,1.5h48.1c2.3,0,3.7-2.5,2.6-4.4l-36.4-63C80.4,499.8,80.4,498.7,80.9,497.8z"/>
	<polygon class="st13" points="94.1,523.6 95.2,525.6 95.2,525.6 94.1,523.6 	"/>
	<polygon class="st13" points="83.3,505 83.3,505 80.2,499.6 80.2,499.6 	"/>
	<polygon class="st13" points="94.1,523.6 94.1,523.6 83.3,505 83.3,505 	"/>
</g>
</svg>
