<svg id="Camada_1" data-name="Camada 1" xmlns="http://www.w3.org/2000/svg" viewBox="0 0 229.64 111.6"><defs><style>.cls-1{fill:#3e3c38;}.cls-2{fill:#ce6854;}</style></defs><title>ostec</title><path class="cls-1" d="M72.1,66.09c0-1.66.41-2.05,2-1.66a30.59,30.59,0,0,0,7.43.91c3.47,0,4.74-.52,4.74-2.05,0-1.19-.66-1.76-3.26-2.86l-5.5-2.29c-3.47-1.38-5-3-5-6.49,0-4.44,3-6.49,9.74-6.49a23.67,23.67,0,0,1,5.91.72c1.79.53,2.14.81,2.14,2.39v.57c0,1.66-.46,2.05-2.09,1.62a23.11,23.11,0,0,0-6.05-.78c-3.32,0-4.49.57-4.49,2,0,1.15.61,1.66,2.4,2.43L86,56.44c3.72,1.5,5.45,3.16,5.45,6.73,0,4.58-3.11,6.68-10.3,6.68a29.26,29.26,0,0,1-7-.81c-1.68-.43-2-.76-2-2.34v-.62Z"/><path class="cls-1" d="M103.61,60.55c0,3.25,1.33,4.68,5.86,4.68s5.81-1.43,5.81-4.68V47.81c0-1.72.46-2.15,2.3-2.15h.66c1.84,0,2.3.43,2.3,2.15V60.55c0,6.16-3.31,9.31-11.06,9.31-7.39,0-11.11-3.1-11.11-9.31V47.81c0-1.72.46-2.15,2.29-2.15h.66c1.84,0,2.29.43,2.29,2.15V60.55Z"/><path class="cls-1" d="M127.51,55.3c0-6.82,4.28-10.16,11.62-10.16,7.9,0,11.67,3.24,11.67,10.16v4.15c0,6.92-3.52,10.4-10.61,10.4-3.62,0-6.11-1-7.49-3.1v10c0,1.72-.46,2.15-2.29,2.15h-.62c-1.83,0-2.29-.43-2.29-2.15V55.3Zm18,.14c0-4-1.33-5.72-6.37-5.72s-6.48,1.72-6.48,5.72v4.1c0,4,1.41,5.68,6.48,5.68s6.37-1.67,6.37-5.68Z"/><path class="cls-1" d="M179.78,57.12c-.21,1.76-.71,2.2-2.6,2.2H163v1c0,3.48,2.12,4.87,7.28,4.87a30.1,30.1,0,0,0,6.63-.76c1.63-.38,2.09,0,2.09,1.66v.62c0,1.57-.3,1.91-2.09,2.34a26.51,26.51,0,0,1-6.64.78c-8.56,0-12.54-3-12.54-10.21V55.49c0-6.92,3.77-10.36,11.32-10.36,7.07,0,10.8,3.39,10.8,9.88C179.88,55.73,179.83,56.4,179.78,57.12ZM163,55.3h11.92V54.1c0-3.15-2-4.72-6-4.72S163,51,163,54.1Z"/><path class="cls-1" d="M192.09,67.18c0,1.72-.46,2.15-2.29,2.15h-.66c-1.84,0-2.29-.43-2.29-2.15V53.58q0-8.45,9.63-8.45a6.42,6.42,0,0,1,1,0c1.68.19,2.14.57,2.14,2.24v.66c0,1.58-.35,1.91-2.14,1.67a6.42,6.42,0,0,0-1,0c-3.42,0-4.39,1.29-4.39,4.2V67.18Z"/><path class="cls-1" d="M206.1,59.55v-4.1c0-6.68,3.82-10.31,11.72-10.31,8.1,0,11.62,3.44,11.62,10.31v4.1c0,6.62-3.82,10.31-11.62,10.31C209.67,69.86,206.1,66.42,206.1,59.55Zm18.1-4.1c0-4-1.41-5.72-6.37-5.72s-6.47,1.72-6.47,5.72v4.1c0,4,1.41,5.68,6.47,5.68s6.37-1.67,6.37-5.68Z"/><path class="cls-2" d="M8.38,57.45a26.11,26.11,0,0,0,1.77,5.47c.51,1.16,3.59,8.94,14.24,11.53a1.94,1.94,0,0,0,.47,0,2.2,2.2,0,0,0,2.09-2.08c0-1.19-.75-2-2.18-2.41h0a23.74,23.74,0,0,1-12.3-8.35,22.49,22.49,0,0,1-3.82-8,.35.35,0,0,0-.35-.3c-.14,0-.23.07-.22.46A20.53,20.53,0,0,0,8.38,57.45Z"/><path class="cls-2" d="M14.22,53.27a18.69,18.69,0,0,0,4.11,6.46,23.59,23.59,0,0,0,6.37,4.33,1.6,1.6,0,0,0,.6.12,1.68,1.68,0,0,0,1.64-1.51,1.8,1.8,0,0,0-1.28-2.15,21.14,21.14,0,0,1-6.13-2.9A23.07,23.07,0,0,1,15,52.73c-.24-.38-.47-.46-.71-.35S14.12,53,14.22,53.27Z"/><path class="cls-2" d="M.56,63A33.55,33.55,0,0,0,5.3,73.46,30.6,30.6,0,0,0,24.09,84.82a2.63,2.63,0,0,0,2-.51A2.26,2.26,0,0,0,27,82.53a2.52,2.52,0,0,0-1.88-2.25,29.12,29.12,0,0,1-14.68-7.77c-1.33-1.32-6.47-6.79-7.6-14.14A23.34,23.34,0,0,1,3.29,47.2c.14-.46,0-.56-.12-.61s-.35,0-.51.37c-.07.18-.16.33-.24.52A25.56,25.56,0,0,0,.56,63Z"/><path class="cls-2" d="M45.88,58.08a26,26,0,0,0-1.77-5.47c-.51-1.16-3.59-8.94-14.24-11.53a2.11,2.11,0,0,0-.47,0,2.19,2.19,0,0,0-2.09,2.08c0,1.19.75,2,2.18,2.42h0a23.76,23.76,0,0,1,12.3,8.35,22.49,22.49,0,0,1,3.82,8,.35.35,0,0,0,.35.3c.14,0,.23-.08.22-.46A20.47,20.47,0,0,0,45.88,58.08Z"/><path class="cls-2" d="M40,62.25a18.73,18.73,0,0,0-4.11-6.46,23.66,23.66,0,0,0-6.37-4.33,1.64,1.64,0,0,0-2.23,1.4A1.8,1.8,0,0,0,28.61,55a21.14,21.14,0,0,1,6.13,2.9,23,23,0,0,1,4.48,4.89c.24.38.47.46.71.35S40.13,62.58,40,62.25Z"/><path class="cls-2" d="M53.69,52.53A33.55,33.55,0,0,0,49,42.06,30.6,30.6,0,0,0,30.17,30.71a2.65,2.65,0,0,0-2,.51A2.26,2.26,0,0,0,27.27,33a2.52,2.52,0,0,0,1.88,2.25A29.12,29.12,0,0,1,43.85,43c1.33,1.32,6.47,6.79,7.6,14.15A23.33,23.33,0,0,1,51,68.33c-.14.46,0,.56.12.61s.35,0,.51-.37c.07-.18.16-.33.24-.52A25.56,25.56,0,0,0,53.69,52.53Z"/></svg>