<svg enable-background="new 0 0 1000 1000" viewBox="0 0 1000 1000" xmlns="http://www.w3.org/2000/svg" xmlns:xlink="http://www.w3.org/1999/xlink"><linearGradient id="a"><stop offset="0" stop-color="#559dff"/><stop offset=".04635438" stop-color="#4e99ff"/><stop offset=".1598" stop-color="#4393ff"/><stop offset=".2809" stop-color="#3f91ff"/><stop offset=".6685" stop-color="#2a6dff"/><stop offset=".8876" stop-color="#0046e9"/><stop offset="1" stop-color="#004fd4"/></linearGradient><linearGradient id="b" gradientUnits="userSpaceOnUse" x1="550.8148" x2="799.4852" xlink:href="#a" y1="609.6463" y2="609.6463"/><linearGradient id="c" gradientUnits="userSpaceOnUse" x1="420.4111" x2="711.9485" xlink:href="#a" y1="461.6305" y2="461.6305"/><linearGradient id="d" gradientUnits="userSpaceOnUse" x1="227.2533" x2="516.9309" xlink:href="#a" y1="534.641" y2="534.641"/><path d="m550.8 464.5v141l82.4-141z" fill="none"/><path d="m717.6 464.5h-79.1c-3.3 0-6.4 1.8-8 4.6l-78.4 134.2c-.8 1.4-1.3 3-1.3 4.7v8.4 129.2c0 5.1 4.2 9.3 9.3 9.3h148.1c5.1 0 9.3-4.2 9.3-9.3v-119.9c0-5.1 4.2-9.3 9.3-9.3h63.3c5.1 0 9.3-4.2 9.3-9.3v-133.3c0-5.1-4.2-9.3-9.3-9.3z" fill="url(#b)"/><path d="m550.8 596.1v-122.3c0-5.1 4.2-9.3 9.3-9.3h67.7c3.3 0 6.4-1.8 8-4.6l74.8-128c3.6-6.2-.9-14-8-14h-151.1c-3.3 0-6.4 1.8-8 4.6l-121.8 208.3c-1.7 2.9-1.7 6.6 0 9.5l36.1 60.6c1.7 2.8 4.7 4.6 8 4.6h75.7c5.1 0 9.3-4.2 9.3-9.4z" fill="url(#c)"/><path d="m401.2 530 114.4-198.2c3.6-6.2-.9-14-8.1-14h-151.1c-3.3 0-6.4 1.8-8.1 4.7l-119.8 207.5c-1.7 2.9-1.7 6.4 0 9.3l119.8 207.5c1.7 2.9 4.7 4.7 8.1 4.7h151.2c7.2 0 11.7-7.8 8.1-14l-114.5-198.2c-1.6-2.9-1.6-6.4 0-9.3z" fill="url(#d)"/><g fill="#fff"><path d="m442.7 611.1 3.6 6.4h.1z"/><path d="m408.9 552.7v-.1l-9.8-17z"/><path d="m442.7 611.1-33.8-58.5v.1z"/></g></svg>